<svg width="16" height="16" viewBox="0 0 16 16" fill="none" xmlns="http://www.w3.org/2000/svg">
<g clip-path="url(#clip0_11674_12621)">
<path d="M4 11.983C4.0858 12.8553 4.27971 13.4424 4.71794 13.8806C5.50398 14.6667 6.76908 14.6667 9.29929 14.6667C11.8295 14.6667 13.0946 14.6667 13.8806 13.8806C14.6667 13.0946 14.6667 11.8295 14.6667 9.29929C14.6667 6.76908 14.6667 5.50398 13.8806 4.71794C13.4424 4.27971 12.8553 4.0858 11.983 4" stroke="white" stroke-width="1.2"/>
<path d="M1.3335 6.66732C1.3335 4.15316 1.3335 2.89608 2.11454 2.11503C2.89559 1.33398 4.15267 1.33398 6.66683 1.33398C9.18099 1.33398 10.4381 1.33398 11.2191 2.11503C12.0002 2.89608 12.0002 4.15316 12.0002 6.66732C12.0002 9.18148 12.0002 10.4386 11.2191 11.2196C10.4381 12.0007 9.18099 12.0007 6.66683 12.0007C4.15267 12.0007 2.89559 12.0007 2.11454 11.2196C1.3335 10.4386 1.3335 9.18148 1.3335 6.66732Z" stroke="white" stroke-width="1.2"/>
<path d="M1.3335 7.41299C1.74617 7.36054 2.16339 7.33463 2.58131 7.33554C4.34927 7.30285 6.07392 7.78487 7.44755 8.69559C8.7215 9.54023 9.61665 10.7027 10.0002 12.0007" stroke="white" stroke-width="1.2" stroke-linejoin="round"/>
<path d="M8.66638 4.66602H8.67236" stroke="white" stroke-width="1.2" stroke-linecap="round" stroke-linejoin="round"/>
</g>
<defs>
<clipPath id="clip0_11674_12621">
<rect width="16" height="16" fill="white"/>
</clipPath>
</defs>
</svg>
