<svg preserveAspectRatio="none" width="100%" height="100%" overflow="visible" style="display: block;" viewBox="0 0 18.5068 21.75" fill="none" xmlns="http://www.w3.org/2000/svg">
<g id="elements">
<path id="Subtract" d="M16 0C16.5523 0 17 0.447715 17 1C17 1.55228 16.5523 2 16 2H4C2.89543 2 2 2.89543 2 4C2 5.10457 2.89543 6 4 6H13.7568V5.5C13.7568 5.22386 13.533 5 13.2568 5H4.75684C4.20455 5 3.75684 4.55228 3.75684 4C3.75684 3.44772 4.20455 3 4.75684 3H13.2568C14.6375 3 15.7568 4.11929 15.7568 5.5V6.25C17.2756 6.25 18.5068 7.48122 18.5068 9V13.0566C18.5069 14.8943 18.5067 16.3501 18.3535 17.4893C18.1959 18.6616 17.8635 19.6101 17.1152 20.3584C16.3669 21.1067 15.4184 21.439 14.2461 21.5967C13.1069 21.7498 11.6511 21.75 9.81348 21.75H8.7002C6.86256 21.75 5.40674 21.7498 4.26758 21.5967C3.09527 21.439 2.14675 21.1067 1.39844 20.3584C0.650129 19.6101 0.317798 18.6616 0.160156 17.4893C0.00699913 16.3501 0.00682072 14.8943 0.00683594 13.0566V4.23535C0.00231755 4.15748 0 4.07901 0 4C0 1.79086 1.79086 0 4 0H16ZM9.25684 10.25C8.70938 10.2501 8.19756 10.5691 7.97559 11.0869L5.56738 16.7041C5.40422 17.0848 5.58119 17.5263 5.96191 17.6895C6.34242 17.8523 6.78302 17.6762 6.94629 17.2959L7.6084 15.75H10.9053L11.5674 17.2959C11.7306 17.6764 12.1721 17.8526 12.5527 17.6895C12.9333 17.5262 13.1094 17.0848 12.9463 16.7041L10.5391 11.0869C10.3171 10.569 9.8044 10.25 9.25684 10.25ZM10.2627 14.25H8.25195L9.25684 11.9043L10.2627 14.25Z" fill="var(--fill-0, #FAFAFA)"/>
</g>
</svg>
