<svg preserveAspectRatio="none" width="100%" height="100%" overflow="visible" style="display: block;" viewBox="0 0 59.9939 56.4646" fill="none" xmlns="http://www.w3.org/2000/svg">
<g id="Group">
<path id="Vector" d="M57.075 5.99423C56.3587 5.94077 55.6744 6.26864 55.2682 6.86735C49.6695 15.1354 44.2169 18.0185 40.6281 18.9842C37.6559 19.7825 34.8156 21.3827 32.3922 23.6172L30.0508 20.9693C28.472 19.1838 26.2019 18.161 23.8177 18.161C21.4335 18.161 18.9923 19.2622 17.4064 21.176L15.9667 22.9151C15.9132 22.9793 15.8811 23.0505 15.8384 23.1182C15.4428 22.5659 15.0365 22.0562 14.6267 21.5894C14.3202 20.9586 13.2261 18.4675 13.832 16.0726C14.2596 14.3798 15.4464 13.0505 16.348 12.2344C16.7685 13.3891 17.1748 15.1175 16.7471 16.8103C16.5618 17.5445 16.2161 18.2751 15.7172 18.9842C15.3965 19.4368 15.5069 20.0641 15.9631 20.3848C16.4193 20.702 17.0465 20.5951 17.3637 20.1389C18.0016 19.2301 18.4506 18.2751 18.6965 17.3057C19.2525 15.1175 18.7536 12.965 18.2404 11.5466C18.0159 10.9229 17.4955 10.4525 16.8505 10.2886C16.2055 10.1247 15.5248 10.2886 15.0294 10.7305C13.8997 11.7319 12.4385 13.3891 11.8861 15.5773C11.5939 16.7284 11.5975 17.8688 11.7365 18.888C11.5226 18.7241 11.3052 18.5602 11.1021 18.4212C11.0415 18.3784 10.9702 18.3641 10.9061 18.3356C10.8562 18.3143 10.8099 18.2822 10.7564 18.2715C10.6638 18.2501 10.5711 18.2537 10.482 18.2608C10.4464 18.2608 10.4107 18.2501 10.3751 18.2572C10.3751 18.2572 10.3608 18.2572 10.3537 18.2572C10.1256 18.2893 7.02512 18.6849 4.74786 17.1382C3.30096 16.1582 2.45991 14.5901 1.99661 13.4604C3.22612 13.4604 4.9902 13.6671 6.4371 14.6471C7.14273 15.1247 7.77352 15.7947 8.31165 16.6321C8.61101 17.099 9.23467 17.2344 9.70153 16.9351C10.1684 16.6357 10.3038 16.012 10.0045 15.5452C9.31664 14.476 8.49697 13.6136 7.56682 12.9828C5.69939 11.7141 3.50766 11.4468 2.00018 11.4468C1.33731 11.4468 0.720776 11.7747 0.346577 12.3271C-0.0276207 12.8759 -0.10246 13.5744 0.139878 14.1909C0.695829 15.5951 1.75428 17.5302 3.6217 18.8025C5.51764 20.089 7.75214 20.3385 9.19904 20.3385C9.63738 20.3385 10.0009 20.3171 10.261 20.2922C11.1128 20.9123 12.0679 21.7319 13.0052 22.7797C13.0622 22.8688 13.1335 22.9401 13.2119 23.0042C13.7215 23.5958 14.2169 24.2658 14.6908 24.9999C13.5932 24.5723 12.271 24.2551 10.8598 24.3406C8.60745 24.4867 6.71151 25.62 5.5212 26.543C4.99733 26.9493 4.70866 27.5872 4.75142 28.2537C4.79419 28.9165 5.16126 29.5153 5.73147 29.8502C6.93603 30.5594 8.76425 31.3684 10.817 31.3684C10.9809 31.3684 11.1449 31.3613 11.3088 31.3542C12.2995 31.29 13.3081 31.0299 14.3131 30.5737C14.8191 30.3456 15.0437 29.7469 14.8156 29.2408C14.5875 28.7348 13.9888 28.5103 13.4827 28.7383C12.6987 29.0947 11.9253 29.2979 11.1805 29.3442C9.43781 29.4582 7.81272 28.7383 6.75427 28.1289C7.72363 27.377 9.24537 26.454 10.9881 26.3435C13.5112 26.1724 15.8134 27.7939 16.3017 28.161C16.3088 28.1753 16.3124 28.186 16.3195 28.2038C17.1891 30.4739 17.631 33.0006 17.631 35.7127C17.631 36.2686 18.08 36.7177 18.636 36.7177C19.1919 36.7177 19.6409 36.2686 19.6409 35.7127C19.6409 32.7547 19.1527 29.9857 18.194 27.4839C18.08 27.1845 17.9446 26.9101 17.8198 26.625C19.3166 27.1738 21.0166 28.2038 21.8861 30.1496C22.2104 30.8766 22.5169 31.8175 22.8448 32.8153C24.3487 37.4376 26.601 44.3513 35.6709 44.7505L37.5739 54.7754C37.7094 55.4953 38.2012 56.0762 38.889 56.3328C39.1278 56.4219 39.3737 56.4646 39.6196 56.4646C40.0793 56.4646 40.5283 56.3114 40.9025 56.0156L42.5241 54.7326C43.0444 54.3192 43.7928 54.362 44.2667 54.8253L44.9296 55.4775C46.2126 56.7355 48.2439 56.7569 49.5483 55.5202L50.3466 54.7647C50.8526 54.2836 51.6509 54.2836 52.157 54.7647L52.4207 55.0142C54.0351 56.5395 56.5048 56.5751 58.162 55.0997C59.8797 53.5673 60.0579 50.9016 58.5255 49.1304L47.5561 37.3592C47.1784 36.9529 46.5404 36.9315 46.1342 37.3093C45.7279 37.687 45.7065 38.3249 46.0843 38.7312L57.0287 50.4739C57.8199 51.3934 57.7272 52.7939 56.822 53.5994C55.9489 54.3763 54.6516 54.3584 53.7999 53.5566L53.5362 53.3071C52.2532 52.0954 50.2432 52.0954 48.9603 53.3071L48.162 54.0627C47.6452 54.5509 46.8398 54.5438 46.3337 54.0448L45.6709 53.3927C44.4734 52.2202 42.5846 52.1204 41.2732 53.1574L39.6481 54.4404L40.2717 55.228L39.5447 54.4012L37.492 43.5744C37.4029 43.1004 36.9859 42.7547 36.5048 42.7547C28.194 42.7547 26.2874 36.8959 24.755 32.1881C24.4129 31.1403 24.0921 30.1496 23.7215 29.3228C22.3779 26.3292 19.6516 25.0142 17.6025 24.4368C17.549 24.4226 17.5134 24.387 17.4955 24.3371C17.4777 24.2836 17.4884 24.2373 17.5241 24.1909L18.9638 22.4518C20.1648 20.9978 21.936 20.1639 23.8248 20.1639C25.7136 20.1639 27.3566 20.9408 28.5504 22.295L31.5796 25.7198C31.7614 25.9229 32.018 26.0477 32.2888 26.0584C32.5597 26.0691 32.827 25.9693 33.0265 25.784L33.5433 25.2922C35.7742 23.1681 38.4079 21.6571 41.1556 20.9194C45.0757 19.8681 50.9952 16.7711 56.9253 7.97926C57.9232 10.032 59.0957 14.0769 55.7564 18.0648C55.5283 18.3392 55.4606 18.7205 55.5818 19.0555C55.6673 19.2907 57.5953 24.8645 51.0772 27.9472C50.7635 28.0969 50.5462 28.3962 50.5069 28.7419C50.4998 28.7918 49.8227 33.7882 39.6659 33.7882C39.1099 33.7882 38.6609 34.2373 38.6609 34.7932C38.6609 35.3492 39.1099 35.7982 39.6659 35.7982C49.6588 35.7982 51.8968 31.2009 52.3779 29.5438C58.7749 26.2579 58.0586 20.7269 57.631 18.9344C61.2839 14.2159 59.9082 9.51882 58.7322 7.099C58.4186 6.45395 57.7985 6.03343 57.0786 5.98353L57.075 5.99423Z" fill="var(--fill-0, #E5E5E5)"/>
<path id="Vector_2" d="M48.3901 10.3634C48.9032 10.5808 49.4913 10.3385 49.7087 9.82885C51.5333 5.49884 49.6089 2.25222 48.2974 0.701975C47.8341 0.149587 47.1 -0.103442 46.3908 0.0391097C45.6673 0.181661 45.0829 0.709103 44.8583 1.40761C42.7022 8.20019 39.5768 11.3898 37.3316 12.8688C35.0223 14.3905 33.219 16.2864 31.9717 18.5067L31.6973 18.9985C31.4264 19.4832 31.5975 20.0961 32.0821 20.367C32.239 20.4561 32.4065 20.4953 32.574 20.4953C32.9268 20.4953 33.2689 20.31 33.4506 19.9821L33.7251 19.4903C34.8156 17.5516 36.4015 15.8873 38.4364 14.5437C40.9524 12.8866 44.4378 9.36912 46.7578 1.99563C47.9945 3.46035 49.1883 5.87304 47.8519 9.04481C47.6381 9.558 47.8769 10.146 48.3865 10.3634H48.3901Z" fill="var(--fill-0, #E5E5E5)"/>
<path id="Vector_3" d="M22.6098 21.8067C22.51 21.8958 22.4387 22.0063 22.3888 22.1275C22.3389 22.2593 22.3176 22.3805 22.3176 22.5195C22.3176 22.6513 22.3389 22.7796 22.3888 22.9008C22.4387 23.022 22.51 23.1325 22.6098 23.2215C22.7915 23.414 23.0517 23.5245 23.3154 23.5245C23.5791 23.5245 23.8464 23.414 24.0282 23.2215C24.128 23.1325 24.1992 23.022 24.2491 22.9008C24.299 22.7796 24.3311 22.6478 24.3311 22.5195C24.3311 22.3912 24.299 22.2593 24.2491 22.1275C24.1992 22.0063 24.128 21.8958 24.0282 21.8067C23.6575 21.4361 22.984 21.4361 22.6098 21.8067Z" fill="var(--fill-0, #E5E5E5)"/>
</g>
</svg>
