<svg preserveAspectRatio="none" width="100%" height="100%" overflow="visible" style="display: block;" viewBox="0 0 60 60" fill="none" xmlns="http://www.w3.org/2000/svg">
<g id="Distance learning_ 1">
<path id="Vector" d="M51.5625 41.25C52.0805 41.25 52.5 40.8305 52.5 40.3125V12.1875C52.5 11.6695 52.0805 11.25 51.5625 11.25H8.4375C7.91953 11.25 7.5 11.6695 7.5 12.1875V40.3125C7.5 40.8305 7.91953 41.25 8.4375 41.25H51.5625ZM9.375 27.1875H29.0625V39.375H24.2953C24.0059 37.6594 22.9383 36.2063 21.4687 35.3906C22.1062 34.718 22.4988 33.8109 22.4988 32.8125C22.4988 30.7453 20.8172 29.0625 18.7488 29.0625C16.6805 29.0625 14.9988 30.7453 14.9988 32.8125C14.9988 33.8109 15.3914 34.718 16.0289 35.3906C14.5594 36.2063 13.4918 37.6594 13.2023 39.375H9.37266V27.1875H9.375ZM16.875 32.8125C16.875 31.7789 17.7164 30.9375 18.75 30.9375C19.7836 30.9375 20.625 31.7789 20.625 32.8125C20.625 33.8461 19.7836 34.6875 18.75 34.6875C17.7164 34.6875 16.875 33.8461 16.875 32.8125ZM18.75 36.5625C20.4938 36.5625 21.9645 37.759 22.3816 39.375H15.1195C15.5367 37.759 17.0062 36.5625 18.7512 36.5625H18.75ZM39.375 32.8125C39.375 31.7789 40.2164 30.9375 41.25 30.9375C42.2836 30.9375 43.125 31.7789 43.125 32.8125C43.125 33.8461 42.2836 34.6875 41.25 34.6875C40.2164 34.6875 39.375 33.8461 39.375 32.8125ZM41.25 36.5625C42.9938 36.5625 44.4645 37.759 44.8816 39.375H37.6195C38.0367 37.759 39.5063 36.5625 41.2512 36.5625H41.25ZM46.7953 39.375C46.5059 37.6594 45.4383 36.2063 43.9688 35.3906C44.6063 34.718 44.9988 33.8109 44.9988 32.8125C44.9988 30.7453 43.3172 29.0625 41.2488 29.0625C39.1805 29.0625 37.4988 30.7453 37.4988 32.8125C37.4988 33.8109 37.8914 34.718 38.5289 35.3906C37.0594 36.2063 35.9918 37.6594 35.7023 39.375H30.9352V27.1875H50.6227V39.375H46.793H46.7953ZM39.375 18.75C39.375 17.7164 40.2164 16.875 41.25 16.875C42.2836 16.875 43.125 17.7164 43.125 18.75C43.125 19.7836 42.2836 20.625 41.25 20.625C40.2164 20.625 39.375 19.7836 39.375 18.75ZM41.25 22.5C42.9938 22.5 44.4645 23.6965 44.8816 25.3125H37.6195C38.0367 23.6965 39.5063 22.5 41.2512 22.5H41.25ZM50.625 25.3125H46.7953C46.5059 23.5969 45.4383 22.1438 43.9688 21.3281C44.6063 20.6555 44.9988 19.7484 44.9988 18.75C44.9988 16.6816 43.3172 15 41.2488 15C39.1805 15 37.4988 16.6816 37.4988 18.75C37.4988 19.7484 37.8914 20.6555 38.5289 21.3281C37.0594 22.1438 35.9918 23.5969 35.7023 25.3125H30.9352V13.125H50.6227V25.3125H50.625ZM29.0625 13.125V25.3125H9.375V13.125H29.0625Z" fill="var(--fill-0, #E5E5E5)"/>
<path id="Vector_2" d="M59.0625 43.125H56.0883C56.1926 42.832 56.25 42.5156 56.25 42.1875V10.3125C56.25 8.76211 54.9879 7.5 53.4375 7.5H6.5625C5.01211 7.5 3.75 8.76211 3.75 10.3125V42.1875C3.75 42.5156 3.80742 42.832 3.91172 43.125H0.9375C0.419531 43.125 0 43.5445 0 44.0625V48.75C0 50.8172 1.68164 52.5 3.75 52.5H56.25C58.3184 52.5 60 50.8172 60 48.75V44.0625C60 43.5445 59.5805 43.125 59.0625 43.125ZM5.625 42.1875V10.3125C5.625 9.7957 6.0457 9.375 6.5625 9.375H53.4375C53.9543 9.375 54.375 9.7957 54.375 10.3125V42.1875C54.375 42.7043 53.9543 43.125 53.4375 43.125H6.5625C6.0457 43.125 5.625 42.7043 5.625 42.1875ZM9.375 45H50.625V46.875H9.375V45ZM58.125 48.75C58.125 49.7836 57.2836 50.625 56.25 50.625H3.75C2.71641 50.625 1.875 49.7836 1.875 48.75V45H7.5V47.8125C7.5 48.3305 7.91953 48.75 8.4375 48.75H51.5625C52.0805 48.75 52.5 48.3305 52.5 47.8125V45H58.125V48.75Z" fill="var(--fill-0, #E5E5E5)"/>
<path id="Vector_3" d="M13.125 23.4375H24.375C24.893 23.4375 25.3125 23.018 25.3125 22.5V15.9375C25.3125 15.4195 24.893 15 24.375 15H20.625C19.9055 15 19.248 15.2719 18.75 15.7184C18.252 15.2719 17.5945 15 16.875 15H13.125C12.607 15 12.1875 15.4195 12.1875 15.9375V22.5C12.1875 23.018 12.607 23.4375 13.125 23.4375ZM20.625 16.875H23.4375V21.5625H19.6875V17.8125C19.6875 17.2957 20.1082 16.875 20.625 16.875ZM14.0625 16.875H16.875C17.3918 16.875 17.8125 17.2957 17.8125 17.8125V21.5625H14.0625V16.875Z" fill="var(--fill-0, #E5E5E5)"/>
</g>
</svg>
