<svg width="93" height="80" viewBox="0 0 93 80" fill="none" xmlns="http://www.w3.org/2000/svg">
<path d="M43.7834 5.92883C44.073 5.89435 44.6429 5.89658 44.9434 5.90069C52.7186 6.08114 60.1092 9.31986 65.5119 14.9143C74.3865 24.0455 77.6819 37.476 74.9219 49.7968C74.5849 51.3011 74.2197 52.1396 74.2073 53.7496C74.1675 58.8861 74.273 64.0387 74.2077 69.173C75.7169 69.1543 78.4771 68.6965 77.4197 71.1247C76.2506 71.3636 74.5793 71.3371 73.3602 71.408C69.164 71.6517 64.9246 71.47 60.7285 71.5288C60.1165 71.5373 58.0603 72.8801 57.3268 73.2526C53.9098 74.9887 50.5196 75.8679 46.6976 76.1185C41.1132 76.4192 36.3496 75.5276 31.4145 72.7997C30.9826 72.5889 29.6143 71.6101 29.1776 71.59C25.0367 71.3983 20.8622 71.6179 16.7091 71.5141C16.0568 71.4977 14.3325 71.464 13.7837 71.1135C13.5081 70.9373 13.5474 70.1239 13.572 69.79C14.1272 69.0121 15.3102 69.1587 16.1823 69.1481C16.1293 65.9071 16.2294 62.6086 16.1752 59.3632C16.1525 58.0053 16.2277 56.0408 16.074 54.7458C15.968 53.8538 15.2352 51.8264 14.9617 50.8441C14.3728 48.6515 13.9911 46.4084 13.8217 44.1444C13.0626 34.1583 16.075 24.1064 22.6298 16.4751C28.1936 9.9977 35.3003 6.56599 43.7834 5.92883Z" fill="#FEFEFE"/>
<path d="M48.965 36.8964C49.5177 36.8886 50.0705 36.8968 50.6226 36.9211C50.3024 39.2544 50.5411 41.5972 50.3212 43.9111C50.0116 47.169 50.0052 50.392 49.9457 53.6602C49.9368 54.1536 49.9776 54.6772 50.0126 55.1698C51.1697 55.3053 52.9478 55.5114 54.0404 55.118C54.5932 54.919 55.1316 54.4229 55.5328 53.9918C57.8257 51.5275 58.445 47.7818 59.0417 44.5905C59.3281 43.0585 59.3258 41.4759 59.9623 40.0347C60.6218 41.0813 60.8228 42.2651 61.0553 43.4635C62.0271 48.4689 62.389 53.506 62.5478 58.5932C60.9105 58.6001 56.9751 58.6171 55.5658 59.1497C55.1013 59.3632 54.6166 59.7298 54.2528 60.0828C52.3507 61.9288 52.2848 63.9099 52.2817 66.3275C52.2866 67.2987 52.2798 68.2701 52.2613 69.2411C47.5743 69.2055 42.887 69.2055 38.2 69.2411C38.0839 66.3252 38.6145 63.0233 36.6087 60.5856C34.5318 58.0614 31.2321 58.7785 28.2906 58.546C28.2711 56.8052 28.4452 55.1294 28.5697 53.4023C28.807 50.1165 29.1132 46.8662 29.7826 43.6359C30.1051 42.0794 30.1714 41.3727 30.8249 39.9412C31.7343 42.279 31.7225 44.9599 32.3347 47.3797C32.9623 49.86 33.6995 52.5541 35.6195 54.3702C37.0433 55.717 38.909 55.3087 40.6817 55.2266C40.7834 54.9078 40.9714 54.4554 40.9826 54.1352C41.0338 52.6848 40.7975 51.203 40.7556 49.7501C40.7148 48.3323 40.7343 46.9053 40.6676 45.4917C40.6 44.0668 40.4454 42.6108 40.3907 41.1862C40.3364 39.7744 40.3581 38.3128 40.3641 36.8964L41.938 36.913C42.0043 37.5702 42.1173 38.1833 42.1592 38.8616C42.2835 40.8844 42.166 42.9066 42.0655 44.9275C42.0087 46.1335 41.7621 47.302 41.7619 48.5109C41.7617 49.855 42.6665 50.9864 44.017 51.1876C45.1919 51.3625 46.8174 51.4975 47.8352 50.7663C48.2968 50.4347 48.8732 49.8691 49.0039 49.2755C49.2441 47.5014 48.7842 45.5652 48.6796 43.776C48.5389 41.3628 48.5648 39.2738 48.965 36.8964Z" fill="#085E4D"/>
<path d="M49.0809 13.2422C49.5624 13.2956 50.7014 13.6234 51.1953 13.7599C52.3201 14.0708 53.2714 14.3053 54.4194 14.5269C54.3263 15.7565 53.8766 16.938 53.5717 18.1235C52.751 21.3032 52.5325 24.5724 52.3273 27.8369C52.215 29.6228 52.2685 31.4874 51.8291 33.2327C51.6793 33.8282 51.4401 34.2997 51.1008 34.8066C50.6073 34.8199 50.1019 34.8199 49.608 34.817C46.3012 34.7971 42.9868 34.8483 39.6807 34.8081C39.0181 33.4949 38.9215 32.8184 38.7168 31.3967C38.4428 28.4315 38.4563 25.4899 38.1124 22.5301C37.7966 19.8108 36.9172 17.2756 36.3984 14.6239C37.6963 14.1991 40.4407 13.4895 41.8161 13.2936C41.9843 13.8274 42.3984 14.6478 42.6571 15.1919C43.2948 16.5343 43.9273 17.9506 44.7294 19.1991C44.873 19.4177 45.1 19.6841 45.3307 19.8043C45.6784 19.9855 46.1342 19.2959 46.2805 19.0383C46.8708 17.9989 47.3404 16.8713 47.8496 15.7868C48.2463 14.9417 48.7143 14.0946 49.0809 13.2422Z" fill="#085E4D"/>
<path d="M34.7397 16.2949C35.0682 16.4928 35.8993 20.3366 35.9945 20.904C35.4856 20.9915 34.8003 21.1013 34.3397 21.299C33.6589 21.591 33.0579 22.2943 32.8071 22.9852C31.9153 25.486 32.9799 28.6095 34.8417 30.4008C35.2131 30.7581 35.5909 31.0621 36.0034 31.3678C36.2492 31.5502 36.6081 31.7989 36.7288 32.0818C37.0222 32.7703 37.1441 33.528 37.3839 34.2358C37.6593 35.0257 38.0699 35.7687 38.2483 36.5904C38.44 37.5726 38.4324 38.6972 38.4815 39.6974C38.5242 40.5631 38.5851 41.4271 38.6305 42.2928L38.9037 48.3048C38.982 50.1094 39.0722 51.6329 39.0653 53.4445C38.2212 53.4029 37.856 53.3202 37.1389 52.8928C33.4278 50.1929 34.1074 42.9314 32.4637 39.0642C31.8152 37.5382 30.8803 36.2451 29.9412 34.8924C29.6386 34.4565 28.941 33.5324 28.7464 33.103L28.7246 33.0538C28.7422 32.3707 29.0461 30.956 29.2071 30.2292C30.0745 26.3158 31.2405 22.4033 33.1103 18.8438C33.5978 17.9158 33.987 17.0525 34.7397 16.2949Z" fill="#085E4D"/>
<path d="M56.0207 16.1895C56.4452 16.399 57.2099 17.9207 57.4644 18.3788C59.3312 21.7333 60.5138 25.4243 61.4006 29.1453C61.7347 30.547 62.0342 31.6937 62.1359 33.131C60.8224 35.3296 59.2292 36.8359 58.293 39.2384C56.7073 43.308 57.4694 50.0326 53.68 52.9033C53.0551 53.3331 52.4367 53.4067 51.7113 53.4854C51.7046 52.4313 51.7958 51.3509 51.8522 50.297L52.0895 45.2912L52.3123 40.679C52.361 39.4519 52.3784 38.0073 52.5546 36.8021C52.6694 36.016 53.2769 34.7976 53.5326 33.987C53.7409 33.3273 53.938 32.52 54.2033 31.895C54.2827 31.7082 55.0116 31.2065 55.2197 31.0539C56.7181 29.9555 57.8829 28.2919 58.2282 26.4487C58.4678 25.1687 58.4497 23.3949 57.6829 22.2867C56.9455 21.221 55.9691 21.1194 54.7942 20.9064C55.2462 19.5654 55.6226 17.6296 56.0207 16.1895Z" fill="#085E4D"/>
<path d="M28.3056 36.1348C28.836 36.4672 29.2005 37.0832 29.4536 37.6347C29.1786 38.7551 28.721 39.8403 28.4561 40.9526C27.4907 45.0052 26.9303 49.1994 26.6642 53.3542C26.6242 53.9779 26.6298 54.6249 26.5985 55.2544C26.5377 56.3766 26.4397 57.4966 26.3046 58.6123C23.8246 58.5963 21.0749 58.3557 18.8247 59.565C18.6244 59.6769 18.3508 59.8003 18.1391 59.9026C18.0127 58.5259 17.8367 51.9874 18.1723 50.8848C18.426 50.0512 19.8417 48.3205 20.4219 47.5058L25.5417 40.1804C26.225 39.2079 27.7887 37.1497 28.2745 36.1965L28.3056 36.1348Z" fill="#085E4D"/>
<path d="M62.1844 36.4092C62.3181 36.4763 64.521 39.6635 64.7589 40.0028L69.5937 46.9141C70.379 48.0457 71.1714 49.1816 71.9403 50.3234C72.0725 50.5199 72.3291 50.9257 72.3484 51.1538C72.4203 52.0011 72.3917 52.9379 72.389 53.7955C72.3942 55.8421 72.3428 57.8886 72.235 59.9325L71.9069 59.7458C71.5094 59.5157 70.9303 59.2013 70.4914 59.0776C68.6344 58.5545 66.3749 58.5978 64.4655 58.5999C64.4725 56.5271 64.3413 55.147 64.1556 53.1012C63.7908 49.0842 63.4257 44.9636 62.4362 41.044C62.155 39.9302 61.6874 38.6498 61.3125 37.5522C61.595 37.1574 61.8847 36.7905 62.1844 36.4092Z" fill="#085E4D"/>
<path d="M57.3845 60.844C58.7631 60.7968 60.2916 60.8291 61.6796 60.8299L68.0075 60.8291C69.2079 60.8359 70.2618 60.9362 71.1387 61.8376C71.5262 62.2328 71.8162 62.7132 71.9853 63.2403C72.3774 64.4921 72.297 67.7978 72.2705 69.2113C71.57 69.2194 70.8694 69.2204 70.1687 69.2148C70.1297 68.0691 70.1455 66.4525 69.8929 65.3437C69.8129 64.9928 69.3677 64.7984 69.0624 64.6523C67.914 65.5493 68.2429 67.845 68.241 69.2109C67.5673 69.2247 66.8732 69.2164 66.1975 69.2164C66.125 68.1066 66.1824 66.9238 66.0497 65.8436C65.9805 65.2788 65.5925 64.9543 65.1463 64.6645C64.8717 64.8359 64.7979 64.8728 64.5867 65.1151C64.24 66.0133 64.3443 68.1916 64.3544 69.2096C63.5954 69.2471 62.835 69.2492 62.0759 69.2158C62.0786 68.1924 62.1024 67.1263 62.0763 66.1058C62.058 65.3926 61.7741 65.0395 61.2638 64.5968C61.0083 64.7777 60.788 64.951 60.5432 65.1466C60.3586 65.8285 60.4131 68.347 60.4155 69.2121C59.6543 69.2598 58.891 69.2618 58.1295 69.2185C58.035 68.2183 58.188 67.1103 58.0997 66.0917C58.0307 65.2946 57.8943 65.0824 57.3152 64.5854C57.0253 64.8135 56.7542 65.0486 56.475 65.289C56.3894 66.5545 56.4199 67.98 56.4265 69.2527C55.6425 69.22 54.8352 69.222 54.0487 69.2146C54.0398 67.8171 54.0493 64.7663 54.4135 63.4614C54.5519 62.9518 54.7905 62.4749 55.1152 62.0583C55.708 61.3035 56.4468 60.9499 57.3845 60.844Z" fill="#085E4D"/>
<path d="M21.0057 60.8381C22.4619 60.7763 23.9585 60.8269 25.4219 60.8306L32.425 60.823C37.0064 60.8199 36.3365 66.0721 36.3239 69.2124C35.6221 69.223 34.9203 69.2232 34.2188 69.213C34.0049 68.1171 34.2762 66.7925 34.0066 65.7152C33.8712 65.1747 33.5477 64.9349 33.0907 64.6841C32.9923 64.75 32.613 64.9929 32.5649 65.0495C32.0227 65.6899 32.1274 68.3786 32.116 69.252L30.2731 69.2576C30.2493 68.4097 30.3811 64.2429 28.8975 64.7946C27.9243 65.7305 28.1829 67.9739 28.1786 69.2536C27.522 69.2626 26.8306 69.2348 26.1713 69.218C26.1624 68.1664 26.2093 66.984 26.0853 65.9479C26.0076 65.2974 25.7121 65.0197 25.2115 64.6655C24.894 64.8599 24.7879 64.9208 24.5268 65.1792C24.2944 65.9832 24.3019 68.2325 24.2445 69.2168C23.5724 69.2211 22.9 69.2199 22.2279 69.2126C22.1981 68.2369 22.2721 67.2199 22.2055 66.2551C22.1506 65.4568 21.8151 65.0706 21.2318 64.5925C20.4975 65.2242 20.4177 65.808 20.3712 66.7525C20.3308 67.5718 20.3284 68.3873 20.2469 69.2045C19.5243 69.2342 18.8014 69.2584 18.0784 69.2771C17.9358 67.6097 17.9318 64.2754 18.6752 62.7231C19.1406 61.7515 20.0013 61.1722 21.0057 60.8381Z" fill="#085E4D"/>
<path d="M43.9018 36.898C44.9188 36.8918 45.9356 36.8972 46.9522 36.9148C46.7213 39.7763 46.7841 42.5964 46.9101 45.463C46.9572 46.5355 47.3555 47.6673 47.101 48.7651C47.0533 48.9703 46.866 49.0483 46.6966 49.1403C46.1178 49.3322 44.33 49.4505 43.8554 49.0018C43.2861 48.4638 43.7049 46.8895 43.8023 46.2257C43.9688 45.0903 43.9907 43.9612 44.0063 42.8165C44.0635 40.8284 43.9816 38.8775 43.9018 36.898Z" fill="#085E4D"/>
<path d="M44.4337 10.3767C45.8409 10.2177 46.717 10.362 48.0022 10.8818C47.8962 11.0749 47.7974 11.2851 47.7099 11.4874C47.1132 12.867 46.4606 14.218 45.832 15.5826C45.7651 15.7535 45.6022 16.0575 45.5137 16.2334C44.7854 15.4237 43.3255 11.9504 42.8359 10.8387C43.4185 10.6231 43.8133 10.47 44.4337 10.3767Z" fill="#085E4D"/>
<path d="M35.3806 23.338C35.6874 23.3357 36.0594 23.3629 36.3707 23.3774C36.3446 25.2288 36.7622 27.2481 36.7153 29.3171C36.5238 29.1921 36.3493 29.0543 36.1678 28.9156C34.9566 27.8008 33.9464 25.8329 34.4304 24.138C34.6192 23.4773 34.6988 23.3459 35.3806 23.338Z" fill="#085E4D"/>
<path d="M55.2776 23.0137C56.7584 23.3009 56.6765 25.1654 56.3596 26.2817C56.1033 27.1844 55.6042 27.9225 55.044 28.6539C54.8558 28.8821 54.6324 29.1212 54.4334 29.3434C54.2295 27.4153 54.3516 25.6707 54.4127 23.7382C54.7043 23.4242 54.8921 23.1979 55.2776 23.0137Z" fill="#085E4D"/>
</svg>
