<svg preserveAspectRatio="none" width="100%" height="100%" overflow="visible" style="display: block;" viewBox="0 0 174.914 64.0936" fill="none" xmlns="http://www.w3.org/2000/svg">
<g id="Logo">
<path id="Vector" fill-rule="evenodd" clip-rule="evenodd" d="M72.2747 0.0936314H31.1774V29.8536C31.1774 29.8536 31.4429 37.7363 42.0717 40.836C42.0717 40.836 48.9802 44.9104 51.6372 48.2761C51.6372 48.2761 53.2321 45.0874 61.7349 40.5704C61.7349 40.5704 71.699 38.1349 72.2747 29.5875V0.0936314Z" fill="var(--fill-0, #FFD036)"/>
<g id="Clip path group">
<mask id="mask0_0_452" style="mask-type:luminance" maskUnits="userSpaceOnUse" x="31" y="0" width="42" height="49">
<path id="Vector_2" d="M31.1654 0.118111V29.8379C31.1654 29.8379 31.4336 37.7238 42.0554 40.8353C42.0554 40.8353 48.9757 44.9123 51.658 48.292C51.658 48.292 53.2137 45.0733 61.7433 40.567C61.7433 40.567 71.7214 38.153 72.2578 29.5696V0.118111H31.1654Z" fill="var(--fill-0, white)"/>
</mask>
<g mask="url(#mask0_0_452)">
<path id="Vector_3" fill-rule="evenodd" clip-rule="evenodd" d="M76.4373 12.3149H25.863V36.4947L32.86 36.3176L51.637 20.2861L71.8319 37.1143L76.4373 36.8487V12.3149Z" fill="var(--fill-0, #3DA6DC)"/>
<path id="Vector_4" d="M76.4373 12.3149H25.863V36.4947L32.86 36.3176L51.637 20.2861L71.8319 37.1143L76.4373 36.8487V12.3149Z" stroke="var(--stroke-0, #2C2E35)" stroke-width="0.187263" stroke-miterlimit="3.864"/>
</g>
</g>
<path id="Vector_5" d="M72.2747 0.0936314H31.1774V29.8536C31.1774 29.8536 31.4429 37.7363 42.0717 40.836C42.0717 40.836 48.9802 44.9104 51.6372 48.2761C51.6372 48.2761 53.2321 45.0874 61.7349 40.5704C61.7349 40.5704 71.699 38.1349 72.2747 29.5875V0.0936314Z" stroke="var(--stroke-0, #2C2E35)" stroke-width="0.187263" stroke-miterlimit="3.864"/>
<path id="Vector_6" fill-rule="evenodd" clip-rule="evenodd" d="M33.1261 12.314L41.1858 4.25423L49.423 12.2255L33.1261 12.314Z" fill="var(--fill-0, #2C2E35)"/>
<path id="Vector_7" d="M33.1261 12.314L41.1858 4.25423L49.423 12.2255L33.1261 12.314Z" stroke="var(--stroke-0, #2C2E35)" stroke-width="0.108177" stroke-miterlimit="3.864"/>
<path id="Vector_8" fill-rule="evenodd" clip-rule="evenodd" d="M48.0059 6.02758L45.7474 8.10904L50.0428 12.2274H55.0029L48.0059 6.02758Z" fill="var(--fill-0, #2C2E35)"/>
<path id="Vector_9" d="M48.0059 6.02758L45.7474 8.10904L50.0428 12.2274H55.0029L48.0059 6.02758Z" stroke="var(--stroke-0, #2C2E35)" stroke-width="0.108177" stroke-miterlimit="3.864"/>
<path id="Vector_10" fill-rule="evenodd" clip-rule="evenodd" d="M54.1174 7.71045L52.523 9.48183L55.6232 12.2274H59.166L54.1174 7.71045Z" fill="var(--fill-0, #2C2E35)"/>
<path id="Vector_11" d="M54.1174 7.71045L52.523 9.48183L55.6232 12.2274H59.166L54.1174 7.71045Z" stroke="var(--stroke-0, #2C2E35)" stroke-width="0.108177" stroke-miterlimit="3.864"/>
<path id="Vector_12" fill-rule="evenodd" clip-rule="evenodd" d="M67.6248 16.6565L68.5104 22.3693L56.5089 22.3253L57.6161 16.7005L67.6248 16.6565Z" fill="var(--fill-0, #FFD036)"/>
<path id="Vector_13" d="M67.6248 16.6565L68.5104 22.3693L56.5089 22.3253L57.6161 16.7005L67.6248 16.6565Z" stroke="var(--stroke-0, #2C2E35)" stroke-width="0.187263" stroke-miterlimit="3.864"/>
<path id="Vector_14" fill-rule="evenodd" clip-rule="evenodd" d="M62.3657 16.5573V21.4728C62.3657 21.4728 63.4729 20.3656 65.5098 21.3398C65.5098 21.3398 66.0415 21.6944 68.1229 21.7384L67.3703 16.7788C67.3703 16.7788 65.7314 16.6458 65.3328 16.5133C65.3328 16.5133 63.783 15.8486 62.5872 16.6013L62.3657 16.5573Z" fill="var(--fill-0, #FFD036)"/>
<path id="Vector_15" d="M62.3657 16.5573V21.4728C62.3657 21.4728 63.4729 20.3656 65.5098 21.3398C65.5098 21.3398 66.0415 21.6944 68.1229 21.7384L67.3703 16.7788C67.3703 16.7788 65.7314 16.6458 65.3328 16.5133C65.3328 16.5133 63.783 15.8486 62.5872 16.6013L62.3657 16.5573Z" stroke="var(--stroke-0, #2C2E35)" stroke-width="0.187263" stroke-miterlimit="3.864"/>
<path id="Vector_16" fill-rule="evenodd" clip-rule="evenodd" d="M62.2933 16.5208V21.4364C62.2933 21.4364 61.1861 20.3291 59.1491 21.3039C59.1491 21.3039 58.6175 21.6579 56.5361 21.7019L57.2887 16.7424C57.2887 16.7424 58.9276 16.6093 59.3262 16.4768C59.3262 16.4768 60.876 15.8122 62.0717 16.5654L62.2933 16.5208Z" fill="var(--fill-0, #FFD036)"/>
<path id="Vector_17" d="M62.2933 16.5208V21.4364C62.2933 21.4364 61.1861 20.3291 59.1491 21.3039C59.1491 21.3039 58.6175 21.6579 56.5361 21.7019L57.2887 16.7424C57.2887 16.7424 58.9276 16.6093 59.3262 16.4768C59.3262 16.4768 60.876 15.8122 62.0717 16.5654L62.2933 16.5208Z" stroke="var(--stroke-0, #2C2E35)" stroke-width="0.187263" stroke-miterlimit="3.864"/>
<path id="Vector_18" d="M62.0226 21.9469C62.0226 21.7511 62.1809 21.5923 62.3767 21.5923C62.5725 21.5923 62.7313 21.7511 62.7313 21.9469C62.7313 22.1427 62.5725 22.3009 62.3767 22.3009C62.1809 22.3009 62.0226 22.1427 62.0226 21.9469Z" fill="var(--fill-0, #FFD036)"/>
<path id="Vector_19" d="M62.0226 21.9469C62.0226 21.7511 62.1809 21.5923 62.3767 21.5923C62.5725 21.5923 62.7313 21.7511 62.7313 21.9469C62.7313 22.1427 62.5725 22.3009 62.3767 22.3009C62.1809 22.3009 62.0226 22.1427 62.0226 21.9469Z" stroke="var(--stroke-0, #2C2E35)" stroke-width="0.1593" stroke-miterlimit="3.864"/>
<path id="Vector_20" fill-rule="evenodd" clip-rule="evenodd" d="M46.19 16.6565L47.0756 22.3693L35.0741 22.3253L36.1813 16.7005L46.19 16.6565Z" fill="var(--fill-0, #FFD036)"/>
<path id="Vector_21" d="M46.19 16.6565L47.0756 22.3693L35.0741 22.3253L36.1813 16.7005L46.19 16.6565Z" stroke="var(--stroke-0, #2C2E35)" stroke-width="0.187263" stroke-miterlimit="3.864"/>
<path id="Vector_22" fill-rule="evenodd" clip-rule="evenodd" d="M40.9313 16.5573V21.4728C40.9313 21.4728 42.0385 20.3656 44.0755 21.3398C44.0755 21.3398 44.6071 21.6944 46.6885 21.7384L45.9359 16.7788C45.9359 16.7788 44.297 16.6458 43.8984 16.5133C43.8984 16.5133 42.3486 15.8486 41.1528 16.6013L40.9313 16.5573Z" fill="var(--fill-0, #FFD036)"/>
<path id="Vector_23" d="M40.9313 16.5573V21.4728C40.9313 21.4728 42.0385 20.3656 44.0755 21.3398C44.0755 21.3398 44.6071 21.6944 46.6885 21.7384L45.9359 16.7788C45.9359 16.7788 44.297 16.6458 43.8984 16.5133C43.8984 16.5133 42.3486 15.8486 41.1528 16.6013L40.9313 16.5573Z" stroke="var(--stroke-0, #2C2E35)" stroke-width="0.187263" stroke-miterlimit="3.864"/>
<path id="Vector_24" fill-rule="evenodd" clip-rule="evenodd" d="M40.8588 16.5208V21.4364C40.8588 21.4364 39.7515 20.3291 37.7146 21.3039C37.7146 21.3039 37.183 21.6579 35.1015 21.7019L35.8542 16.7424C35.8542 16.7424 37.4931 16.6093 37.8916 16.4768C37.8916 16.4768 39.4415 15.8122 40.6372 16.5654L40.8588 16.5208Z" fill="var(--fill-0, #FFD036)"/>
<path id="Vector_25" d="M40.8588 16.5208V21.4364C40.8588 21.4364 39.7515 20.3291 37.7146 21.3039C37.7146 21.3039 37.183 21.6579 35.1015 21.7019L35.8542 16.7424C35.8542 16.7424 37.4931 16.6093 37.8916 16.4768C37.8916 16.4768 39.4415 15.8122 40.6372 16.5654L40.8588 16.5208Z" stroke="var(--stroke-0, #2C2E35)" stroke-width="0.187263" stroke-miterlimit="3.864"/>
<path id="Vector_26" d="M40.5882 21.9469C40.5882 21.7511 40.7465 21.5923 40.9423 21.5923C41.1381 21.5923 41.2969 21.7511 41.2969 21.9469C41.2969 22.1427 41.1381 22.3009 40.9423 22.3009C40.7465 22.3009 40.5882 22.1427 40.5882 21.9469Z" fill="var(--fill-0, #FFD036)"/>
<path id="Vector_27" d="M40.5882 21.9469C40.5882 21.7511 40.7465 21.5923 40.9423 21.5923C41.1381 21.5923 41.2969 21.7511 41.2969 21.9469C41.2969 22.1427 41.1381 22.3009 40.9423 22.3009C40.7465 22.3009 40.5882 22.1427 40.5882 21.9469Z" stroke="var(--stroke-0, #2C2E35)" stroke-width="0.1593" stroke-miterlimit="3.864"/>
<path id="Vector_28" fill-rule="evenodd" clip-rule="evenodd" d="M64.5686 3.67883C64.5686 3.67883 63.4394 2.83766 62.7088 2.72661L60.7598 2.79314C60.7598 2.79314 60.1622 2.9927 61.1589 3.16973C62.1551 3.34676 61.1144 3.45727 61.1144 3.45727L61.8671 3.41328C61.8671 3.41328 62.2217 3.08121 62.2882 3.47926C62.3547 3.87785 63.3289 3.61231 63.3289 3.61231C63.3289 3.61231 62.4652 3.90038 62.2217 3.83386C61.9781 3.76734 62.0666 3.94491 62.0886 4.03343C62.1106 4.12194 61.336 3.9669 61.4245 4.21046C61.513 4.45401 60.7598 4.12194 60.9148 4.45401C61.0704 4.78608 60.4503 4.23245 60.4723 4.67503C60.4943 5.11814 59.7416 4.63104 59.7861 5.07362C59.8301 5.51673 59.6086 5.3397 59.6086 5.3397C59.6086 5.3397 60.2727 5.42822 60.2952 5.22919C60.3172 5.02963 60.6713 5.64977 60.8483 5.16267C61.0259 4.67503 61.4245 5.56072 61.668 4.96311C61.9116 4.36549 62.0666 4.76354 62.0666 4.76354C62.0666 4.76354 62.3767 5.11814 62.0886 5.18466C61.8005 5.25118 61.8005 5.09615 61.8005 5.42822C61.8005 5.76028 60.9594 5.16267 61.2029 6.2034C61.4465 7.24413 61.2249 6.29191 61.2249 6.29191H60.8709C60.8709 6.29191 60.3392 6.49094 60.4943 6.84554C60.6493 7.1996 60.4503 6.95605 60.4723 7.1776C60.4943 7.39916 60.5388 7.48768 60.9819 7.37663C61.4245 7.26612 61.8005 7.50967 61.6015 7.00004C61.4025 6.49094 61.8231 6.7125 61.8231 6.7125C61.8671 6.86753 62.4652 7.04456 62.3547 6.46894C62.2436 5.89332 62.8638 6.88953 62.7973 6.02583C62.7308 5.16267 63.2624 5.60525 63.2179 5.62724C63.1733 5.64977 63.4614 5.3397 63.5499 5.64977C63.639 5.95931 63.0188 5.93731 63.1513 6.22539C63.2844 6.51347 62.7973 6.7125 62.9303 6.77902C63.0628 6.84554 62.6202 7.04456 62.8858 7.11108C63.1513 7.1776 62.9078 7.44315 62.9078 7.44315C62.9078 7.44315 62.8193 8.10729 63.639 7.77522C64.4576 7.44315 63.3509 7.73123 63.816 7.26612C64.2806 6.80101 64.1481 7.13308 64.1481 7.13308C64.1481 7.13308 64.4801 6.66797 64.1035 6.62398C63.7275 6.57945 64.4576 6.09235 64.4136 6.26938C64.3691 6.44695 64.5467 6.53546 64.6797 6.60199C64.8122 6.66797 64.5912 6.86753 64.8787 6.95605C65.1663 7.04456 64.6352 7.64271 64.9672 7.62018C65.2993 7.59819 64.9672 8.04077 64.9672 8.04077C64.9672 8.04077 64.4576 8.2178 65.1888 8.52787C65.9194 8.83794 65.1888 8.86047 65.1888 8.86047C65.1888 8.86047 64.5021 9.10402 65.1663 9.52461V9.98972C65.1663 9.98972 64.6352 9.85667 64.9232 10.5873C65.2108 11.318 64.7237 10.7204 64.7237 10.7204C64.7237 10.7204 64.4136 10.8089 64.5467 11.2295C64.6797 11.6501 64.5021 11.8051 64.7237 11.7831C64.9452 11.7611 64.4801 11.9381 64.4576 12.1597C64.4356 12.3812 66.5616 12.2702 66.5616 12.2702C66.5616 12.2702 66.4505 12.1372 66.5396 11.6281C66.6281 11.119 66.5616 11.6281 66.7166 11.318C66.8716 11.0084 66.6281 10.8089 66.4731 10.8534C66.318 10.8974 66.119 10.4543 66.4731 10.4543C66.8271 10.4543 66.4951 10.2993 66.4951 10.2993C66.4951 10.2993 67.0487 10.0562 66.5171 9.79015C65.986 9.52461 66.318 9.48008 66.4065 9.45809C66.4951 9.43609 67.0707 9.23653 66.5836 8.90446C66.0965 8.57239 66.4951 8.50587 66.4951 8.50587C66.4951 8.50587 66.5616 8.28432 66.2735 8.24033C65.986 8.1958 66.2295 7.37663 66.2295 7.37663C66.2295 7.37663 66.163 7.15507 65.8755 7.1776C65.5874 7.1996 66.03 6.42442 65.6094 6.66797C65.1888 6.91152 65.4763 6.42442 65.5209 6.31391C65.5648 6.2034 65.8755 6.18087 65.8755 6.29191C65.8755 6.40242 65.8755 6.73449 66.0525 6.73449C66.2295 6.73449 66.2515 7.06656 66.2515 7.06656C66.2515 7.06656 66.4951 6.93405 66.5616 7.15507C66.6281 7.37663 66.9162 7.57619 67.1152 7.55366C67.3142 7.53167 67.1372 7.22159 67.2922 7.11108C67.4473 7.00004 67.4918 6.42442 67.1152 6.44695C66.7386 6.46894 66.7831 6.29191 66.9602 6.22539C67.1372 6.15887 67.2482 5.60525 66.9382 5.60525C66.6281 5.60525 67.2922 5.14014 66.6721 5.07362C66.0525 5.00763 66.9162 4.87459 66.9162 4.87459L67.4253 4.8526C67.4253 4.8526 67.2037 4.96311 67.6243 5.14014C68.0454 5.31771 67.7793 5.76028 68.0009 5.62724C68.2224 5.49474 68.3549 5.64977 68.2664 5.93731C68.1779 6.22539 68.4215 6.11435 68.665 6.02583C68.9086 5.93731 68.7315 6.42442 68.7315 6.42442C68.7315 6.42442 68.9971 6.46894 69.0856 6.22539C69.1741 5.98184 69.0416 5.64977 69.1301 5.58325C69.2186 5.51673 69.3297 4.498 69.0191 4.498C68.7095 4.498 68.687 4.38749 68.8201 4.29897C68.9531 4.21046 69.4182 4.21046 68.8866 3.78934C68.3549 3.36875 68.687 3.90038 68.687 3.90038C68.687 3.90038 68.289 3.6343 68.5325 3.32476C68.7755 3.01469 67.7128 3.36875 67.8233 3.30223C67.9344 3.23625 67.6463 2.77114 66.5616 3.14773C65.4763 3.52379 66.34 2.92618 66.34 2.92618C66.34 2.92618 66.5616 2.68209 66.03 2.81567C65.4983 2.94817 66.0525 2.50506 65.6314 2.68209C65.2108 2.85966 65.6979 2.23951 65.3438 2.57158C64.9892 2.90418 65.0118 2.77114 65.1003 2.94817C65.1888 3.1252 64.6797 2.68209 64.7237 3.03669C64.7682 3.39075 65.1003 3.67883 64.7457 3.67883H64.5686Z" fill="var(--fill-0, #2C2E35)"/>
<path id="Vector_29" d="M64.5686 3.67883C64.5686 3.67883 63.4394 2.83766 62.7088 2.72661L60.7598 2.79314C60.7598 2.79314 60.1622 2.9927 61.1589 3.16973C62.1551 3.34676 61.1144 3.45727 61.1144 3.45727L61.8671 3.41328C61.8671 3.41328 62.2217 3.08121 62.2882 3.47926C62.3547 3.87785 63.3289 3.61231 63.3289 3.61231C63.3289 3.61231 62.4652 3.90038 62.2217 3.83386C61.9781 3.76734 62.0666 3.94491 62.0886 4.03343C62.1106 4.12194 61.336 3.9669 61.4245 4.21046C61.513 4.45401 60.7598 4.12194 60.9148 4.45401C61.0704 4.78608 60.4503 4.23245 60.4723 4.67503C60.4943 5.11814 59.7416 4.63104 59.7861 5.07362C59.8301 5.51673 59.6086 5.3397 59.6086 5.3397C59.6086 5.3397 60.2727 5.42822 60.2952 5.22919C60.3172 5.02963 60.6713 5.64977 60.8483 5.16267C61.0259 4.67503 61.4245 5.56072 61.668 4.96311C61.9116 4.36549 62.0666 4.76354 62.0666 4.76354C62.0666 4.76354 62.3767 5.11814 62.0886 5.18466C61.8005 5.25118 61.8005 5.09615 61.8005 5.42822C61.8005 5.76028 60.9594 5.16267 61.2029 6.2034C61.4465 7.24413 61.2249 6.29191 61.2249 6.29191H60.8709C60.8709 6.29191 60.3392 6.49094 60.4943 6.84554C60.6493 7.1996 60.4503 6.95605 60.4723 7.1776C60.4943 7.39916 60.5388 7.48768 60.9819 7.37663C61.4245 7.26612 61.8005 7.50967 61.6015 7.00004C61.4025 6.49094 61.8231 6.7125 61.8231 6.7125C61.8671 6.86753 62.4652 7.04456 62.3547 6.46894C62.2436 5.89332 62.8638 6.88953 62.7973 6.02583C62.7308 5.16267 63.2624 5.60525 63.2179 5.62724C63.1733 5.64977 63.4614 5.3397 63.5499 5.64977C63.639 5.95931 63.0188 5.93731 63.1513 6.22539C63.2844 6.51347 62.7973 6.7125 62.9303 6.77902C63.0628 6.84554 62.6202 7.04456 62.8858 7.11108C63.1513 7.1776 62.9078 7.44315 62.9078 7.44315C62.9078 7.44315 62.8193 8.10729 63.639 7.77522C64.4576 7.44315 63.3509 7.73123 63.816 7.26612C64.2806 6.80101 64.1481 7.13308 64.1481 7.13308C64.1481 7.13308 64.4801 6.66797 64.1035 6.62398C63.7275 6.57945 64.4576 6.09235 64.4136 6.26938C64.3691 6.44695 64.5467 6.53546 64.6797 6.60199C64.8122 6.66797 64.5912 6.86753 64.8787 6.95605C65.1663 7.04456 64.6352 7.64271 64.9672 7.62018C65.2993 7.59819 64.9672 8.04077 64.9672 8.04077C64.9672 8.04077 64.4576 8.2178 65.1888 8.52787C65.9194 8.83794 65.1888 8.86047 65.1888 8.86047C65.1888 8.86047 64.5021 9.10402 65.1663 9.52461V9.98972C65.1663 9.98972 64.6352 9.85667 64.9232 10.5873C65.2108 11.318 64.7237 10.7204 64.7237 10.7204C64.7237 10.7204 64.4136 10.8089 64.5467 11.2295C64.6797 11.6501 64.5021 11.8051 64.7237 11.7831C64.9452 11.7611 64.4801 11.9381 64.4576 12.1597C64.4356 12.3812 66.5616 12.2702 66.5616 12.2702C66.5616 12.2702 66.4505 12.1372 66.5396 11.6281C66.6281 11.119 66.5616 11.6281 66.7166 11.318C66.8716 11.0084 66.6281 10.8089 66.4731 10.8534C66.318 10.8974 66.119 10.4543 66.4731 10.4543C66.8271 10.4543 66.4951 10.2993 66.4951 10.2993C66.4951 10.2993 67.0487 10.0562 66.5171 9.79015C65.986 9.52461 66.318 9.48008 66.4065 9.45809C66.4951 9.43609 67.0707 9.23653 66.5836 8.90446C66.0965 8.57239 66.4951 8.50587 66.4951 8.50587C66.4951 8.50587 66.5616 8.28432 66.2735 8.24033C65.986 8.1958 66.2295 7.37663 66.2295 7.37663C66.2295 7.37663 66.163 7.15507 65.8755 7.1776C65.5874 7.1996 66.03 6.42442 65.6094 6.66797C65.1888 6.91152 65.4763 6.42442 65.5209 6.31391C65.5648 6.2034 65.8755 6.18087 65.8755 6.29191C65.8755 6.40242 65.8755 6.73449 66.0525 6.73449C66.2295 6.73449 66.2515 7.06656 66.2515 7.06656C66.2515 7.06656 66.4951 6.93405 66.5616 7.15507C66.6281 7.37663 66.9162 7.57619 67.1152 7.55366C67.3142 7.53167 67.1372 7.22159 67.2922 7.11108C67.4473 7.00004 67.4918 6.42442 67.1152 6.44695C66.7386 6.46894 66.7831 6.29191 66.9602 6.22539C67.1372 6.15887 67.2482 5.60525 66.9382 5.60525C66.6281 5.60525 67.2922 5.14014 66.6721 5.07362C66.0525 5.00763 66.9162 4.87459 66.9162 4.87459L67.4253 4.8526C67.4253 4.8526 67.2037 4.96311 67.6243 5.14014C68.0454 5.31771 67.7793 5.76028 68.0009 5.62724C68.2224 5.49474 68.3549 5.64977 68.2664 5.93731C68.1779 6.22539 68.4215 6.11435 68.665 6.02583C68.9086 5.93731 68.7315 6.42442 68.7315 6.42442C68.7315 6.42442 68.9971 6.46894 69.0856 6.22539C69.1741 5.98184 69.0416 5.64977 69.1301 5.58325C69.2186 5.51673 69.3297 4.498 69.0191 4.498C68.7095 4.498 68.687 4.38749 68.8201 4.29897C68.9531 4.21046 69.4182 4.21046 68.8866 3.78934C68.3549 3.36875 68.687 3.90038 68.687 3.90038C68.687 3.90038 68.289 3.6343 68.5325 3.32476C68.7755 3.01469 67.7128 3.36875 67.8233 3.30223C67.9344 3.23625 67.6463 2.77114 66.5616 3.14773C65.4763 3.52379 66.34 2.92618 66.34 2.92618C66.34 2.92618 66.5616 2.68209 66.03 2.81567C65.4983 2.94817 66.0525 2.50506 65.6314 2.68209C65.2108 2.85966 65.6979 2.23951 65.3438 2.57158C64.9892 2.90418 65.0118 2.77114 65.1003 2.94817C65.1888 3.1252 64.6797 2.68209 64.7237 3.03669C64.7682 3.39075 65.1003 3.67883 64.7457 3.67883H64.5686Z" stroke="var(--stroke-0, #2C2E35)" stroke-width="0.108177" stroke-miterlimit="3.864"/>
<path id="Vector_30" fill-rule="evenodd" clip-rule="evenodd" d="M52.9439 25.026L52.9884 26.5538C52.9884 26.5538 57.8374 28.7458 55.0473 31.1373C55.0473 31.1373 55.1471 28.5908 52.5785 29.0339C52.5785 29.0339 52.689 28.1702 51.8586 28.3917C51.8586 28.3917 51.7701 27.9932 51.5266 28.3692C51.5266 28.3692 50.5856 28.1922 50.7852 29.0339C50.9842 29.8751 50.8179 29.1664 50.8179 29.1664C50.8179 29.1664 48.5819 28.2587 48.2939 31.1819C48.2939 31.1819 45.0832 29.587 50.2203 26.7529C50.2203 26.7529 50.4858 25.9557 50.5304 24.9595C50.5304 24.9595 50.0872 25.9337 49.9987 25.9782C49.9987 25.9782 49.1796 26.6311 48.5154 26.4761C48.5154 26.4761 48.0503 28.0591 46.9431 28.0264C46.9431 28.0264 47.0649 29.1331 46.2677 29.7865C46.2677 29.7865 46.7435 30.2736 46.6995 30.5059L46.7548 31.3036C46.7548 31.3036 46.8766 32.1448 48.2493 32.023H54.9143C54.9143 32.023 56.4646 32.045 56.4973 30.8713L56.7634 30.4952C56.7634 30.4952 57.8154 29.9528 56.7194 29.3434L56.5199 29.3547C56.5199 29.3547 56.2431 28.2254 56.4866 27.8049C56.4866 27.8049 55.1578 27.7163 55.1471 26.4321C55.1471 26.4321 53.5307 26.8194 53.1429 25.1478L52.9439 25.026Z" fill="var(--fill-0, #3DA6DC)"/>
<path id="Vector_31" fill-rule="evenodd" clip-rule="evenodd" d="M54.5822 32.2885H51.8586V39.8391C51.8586 39.8391 53.2314 39.8836 53.3864 39.7066C53.3864 39.7066 55.2243 38.7318 55.7779 36.8274C55.7779 36.8274 56.3096 37.4921 55.889 39.0864C55.889 39.0864 55.4898 41.1014 53.2759 41.8986L53.918 42.1421C53.918 42.1421 53.4529 42.6512 52.6118 42.8502C52.6118 42.8502 55.8444 43.4484 56.7741 38.6213C56.7741 38.6213 57.2172 37.182 55.9995 35.6097C55.9995 35.6097 55.6674 35.6322 55.0913 36.2078V34.2149C55.0913 34.2149 55.911 35.2556 56.3761 35.3886L56.5971 35.3001C56.5971 35.3001 56.3096 35.0121 56.1325 34.5249C55.955 34.0378 56.3981 33.9273 55.7114 33.6838L55.2908 32.8866C55.2908 32.8866 55.2688 32.6205 54.6047 32.687L54.5822 32.2885Z" fill="var(--fill-0, #3DA6DC)"/>
<path id="Vector_32" fill-rule="evenodd" clip-rule="evenodd" d="M48.8199 32.2885H51.5434V39.8391C51.5434 39.8391 50.1707 39.8836 50.0156 39.7066C50.0156 39.7066 48.1777 38.7318 47.6241 36.8274C47.6241 36.8274 47.0925 37.4921 47.5131 39.0864C47.5131 39.0864 47.9122 41.1014 50.1261 41.8986L49.484 42.1421C49.484 42.1421 49.9491 42.6512 50.7903 42.8502C50.7903 42.8502 47.5576 43.4484 46.6274 38.6213C46.6274 38.6213 46.1848 37.182 47.4025 35.6097C47.4025 35.6097 47.7346 35.6322 48.3108 36.2078V34.2149C48.3108 34.2149 47.4911 35.2556 47.0265 35.3886L46.8049 35.3001C46.8049 35.3001 47.0925 35.0121 47.2695 34.5249C47.4471 34.0378 47.004 33.9273 47.6906 33.6838L48.1112 32.8866C48.1112 32.8866 48.1332 32.6205 48.7973 32.687L48.8199 32.2885Z" fill="var(--fill-0, #3DA6DC)"/>
<path id="Vector_33" fill-rule="evenodd" clip-rule="evenodd" d="M75.8172 50.5796H27.5459C27.5459 50.5796 21.1685 48.7197 26.6602 48.1886C26.6602 48.1886 34.0998 47.834 35.5171 46.5937C35.5171 46.5937 35.6947 42.8739 24.7113 45.708C24.7113 45.708 9.65459 52.9711 0.0885197 50.8456C0.0885197 50.8456 9.7431 53.4137 10.1857 54.0338C10.1857 54.0338 4.60547 55.8937 0 56.7794C0 56.7794 7.70564 58.3738 17.4487 55.8937L24.2687 54.0338V56.2478C24.2687 56.2478 26.1286 57.8427 31.0887 58.1082H74.0459C74.0459 58.1082 78.1202 57.3995 78.9174 56.3368L78.8289 54.0338C78.8289 54.0338 83.3459 54.654 85.2063 55.6282C85.2063 55.6282 94.0632 58.7284 104.337 57.0449C104.337 57.0449 93.7976 54.831 93.0004 54.2108C93.0004 54.2108 96.0116 52.1739 103.983 50.9336C103.983 50.9336 91.3176 51.9969 81.8406 46.9483C81.8406 46.9483 74.843 43.494 69.4404 44.9999C69.4404 44.9999 67.8461 45.1769 67.8461 46.3281C67.8461 46.3281 70.8572 48.6311 74.4884 48.0995C74.4884 48.0995 82.6372 48.4541 76.4374 50.4025L75.8172 50.5796Z" fill="var(--fill-0, #3DA6DC)"/>
<path id="Vector_34" fill-rule="evenodd" clip-rule="evenodd" d="M28.6661 55.7145V52.5435H31.0131V53.0794H29.3082V53.7838H30.8935V54.3197H29.3082V55.1786H31.0753V55.7145H28.6661Z" fill="var(--fill-0, white)"/>
<path id="Vector_35" fill-rule="evenodd" clip-rule="evenodd" d="M31.6331 55.7145V52.5703H32.2753V55.1786H33.8653V55.7145H31.6331Z" fill="var(--fill-0, white)"/>
<path id="Vector_36" fill-rule="evenodd" clip-rule="evenodd" d="M37.0166 54.4571L36.5757 53.2833L36.1481 54.4571H37.0166ZM38.1904 55.7145H37.4989L37.2248 54.993H35.9528L35.6894 55.7145H35.0103L36.242 52.5441H36.9201L38.1904 55.7145Z" fill="var(--fill-0, white)"/>
<path id="Vector_37" fill-rule="evenodd" clip-rule="evenodd" d="M38.552 55.7145V52.5703H39.1941V55.1786H40.7842V55.7145H38.552Z" fill="var(--fill-0, white)"/>
<path id="Vector_38" fill-rule="evenodd" clip-rule="evenodd" d="M41.0735 54.6867L41.6979 54.6245C41.7349 54.8332 41.8111 54.9866 41.9254 55.0848C42.0397 55.1824 42.1936 55.2318 42.3878 55.2318C42.5933 55.2318 42.7483 55.1878 42.8524 55.1009C42.9565 55.0135 43.0085 54.9115 43.0085 54.7951C43.0085 54.72 42.987 54.6562 42.943 54.6036C42.8991 54.551 42.8229 54.5054 42.7134 54.4663C42.6389 54.4405 42.4688 54.3944 42.2033 54.3279C41.8615 54.2426 41.6218 54.138 41.4839 54.0135C41.2897 53.8381 41.1931 53.6251 41.1931 53.373C41.1931 53.2115 41.2387 53.0597 41.3299 52.9186C41.4211 52.7775 41.5526 52.6702 41.7242 52.5967C41.8964 52.5227 42.1035 52.4857 42.3465 52.4857C42.7429 52.4857 43.0418 52.5736 43.2418 52.7501C43.4425 52.9261 43.5476 53.1616 43.5578 53.4556L42.9157 53.4776C42.8883 53.314 42.8304 53.1965 42.7408 53.1246C42.6512 53.0532 42.5171 53.0173 42.3385 53.0173C42.1539 53.0173 42.0096 53.0554 41.905 53.1326C41.8379 53.1814 41.8041 53.2474 41.8041 53.33C41.8041 53.4052 41.8358 53.4695 41.8991 53.5232C41.9796 53.5913 42.1754 53.6621 42.486 53.7361C42.7966 53.8096 43.0262 53.8858 43.1748 53.9641C43.3239 54.043 43.4409 54.1503 43.5246 54.2866C43.6088 54.4228 43.6512 54.5913 43.6512 54.7919C43.6512 54.9738 43.6002 55.1438 43.4999 55.3021C43.3985 55.4609 43.2558 55.5789 43.0713 55.6561C42.8867 55.7334 42.6571 55.7715 42.3819 55.7715C41.9806 55.7715 41.6733 55.6797 41.4581 55.4947C41.2436 55.3101 41.1153 55.0408 41.0735 54.6867Z" fill="var(--fill-0, white)"/>
<path id="Vector_39" fill-rule="evenodd" clip-rule="evenodd" d="M44.0225 54.6867L44.6469 54.6245C44.6845 54.8332 44.7601 54.9866 44.8744 55.0848C44.9886 55.1824 45.1426 55.2318 45.3368 55.2318C45.5422 55.2318 45.6973 55.1878 45.8014 55.1009C45.906 55.0135 45.958 54.9115 45.958 54.7951C45.958 54.72 45.936 54.6562 45.892 54.6036C45.8486 54.551 45.7718 54.5054 45.6629 54.4663C45.5884 54.4405 45.4183 54.3944 45.1522 54.3279C44.8105 54.2426 44.5707 54.138 44.4329 54.0135C44.2392 53.8381 44.1421 53.6251 44.1421 53.373C44.1421 53.2115 44.1877 53.0597 44.2794 52.9186C44.3701 52.7775 44.5015 52.6702 44.6732 52.5967C44.8454 52.5227 45.0525 52.4857 45.2955 52.4857C45.6919 52.4857 45.9907 52.5736 46.1908 52.7501C46.392 52.9261 46.4971 53.1616 46.5068 53.4556L45.8652 53.4776C45.8378 53.314 45.7794 53.1965 45.6898 53.1246C45.6007 53.0532 45.4666 53.0173 45.2874 53.0173C45.1029 53.0173 44.9586 53.0554 44.854 53.1326C44.7869 53.1814 44.7531 53.2474 44.7531 53.33C44.7531 53.4052 44.7848 53.4695 44.8486 53.5232C44.9285 53.5913 45.1243 53.6621 45.435 53.7361C45.7456 53.8096 45.9757 53.8858 46.1243 53.9641C46.2729 54.043 46.3898 54.1503 46.4735 54.2866C46.5583 54.4228 46.6001 54.5913 46.6001 54.7919C46.6001 54.9738 46.5492 55.1438 46.4489 55.3021C46.348 55.4609 46.2048 55.5789 46.0208 55.6561C45.8357 55.7334 45.6061 55.7715 45.3309 55.7715C44.9301 55.7715 44.6222 55.6797 44.4076 55.4947C44.1925 55.3101 44.0643 55.0408 44.0225 54.6867Z" fill="var(--fill-0, white)"/>
<path id="Vector_40" fill-rule="evenodd" clip-rule="evenodd" d="M47.6669 54.1267C47.6669 54.4861 47.75 54.7586 47.9163 54.9442C48.0826 55.1299 48.2934 55.2227 48.5493 55.2227C48.8047 55.2227 49.015 55.1304 49.1791 54.9464C49.3428 54.7624 49.4248 54.4861 49.4248 54.1176C49.4248 53.7538 49.3454 53.4824 49.1856 53.3032C49.0257 53.1246 48.8138 53.035 48.5493 53.035C48.2849 53.035 48.0714 53.1257 47.9099 53.307C47.7479 53.4883 47.6669 53.7614 47.6669 54.1267ZM47.007 54.1481C47.007 53.8247 47.0553 53.5527 47.1519 53.3333C47.2243 53.1713 47.3225 53.0264 47.4475 52.8977C47.5724 52.7689 47.7092 52.674 47.8578 52.6117C48.0553 52.528 48.2833 52.4857 48.5418 52.4857C49.0091 52.4857 49.3835 52.631 49.6641 52.9213C49.9447 53.212 50.0852 53.6154 50.0852 54.1331C50.0852 54.646 49.9457 55.0472 49.6673 55.3369C49.3889 55.6266 49.0166 55.7715 48.5504 55.7715C48.0789 55.7715 47.7033 55.6277 47.4249 55.3391C47.1465 55.051 47.007 54.654 47.007 54.1481Z" fill="var(--fill-0, white)"/>
<path id="Vector_41" fill-rule="evenodd" clip-rule="evenodd" d="M50.5822 55.7145V52.5435H51.2039L52.5086 54.669V52.5435H53.1019V55.7145H52.4608L51.1755 53.6299V55.7145H50.5822Z" fill="var(--fill-0, white)"/>
<path id="Vector_42" fill-rule="evenodd" clip-rule="evenodd" d="M54.8423 54.6867L55.4667 54.6245C55.5037 54.8332 55.5799 54.9866 55.6942 55.0848C55.8084 55.1824 55.9624 55.2318 56.1566 55.2318C56.3621 55.2318 56.5171 55.1878 56.6212 55.1009C56.7252 55.0135 56.7773 54.9115 56.7773 54.7951C56.7773 54.72 56.7558 54.6562 56.7118 54.6036C56.6678 54.551 56.5917 54.5054 56.4828 54.4663C56.4082 54.4405 56.2376 54.3944 55.9721 54.3279C55.6303 54.2426 55.3905 54.138 55.2527 54.0135C55.0585 53.8381 54.9619 53.6251 54.9619 53.373C54.9619 53.2115 55.0075 53.0597 55.0987 52.9186C55.1899 52.7775 55.3213 52.6702 55.493 52.5967C55.6652 52.5227 55.8723 52.4857 56.1153 52.4857C56.5117 52.4857 56.8105 52.5736 57.0106 52.7501C57.2113 52.9261 57.3164 53.1616 57.3266 53.4556L56.6845 53.4776C56.6571 53.314 56.5992 53.1965 56.5096 53.1246C56.42 53.0532 56.2859 53.0173 56.1072 53.0173C55.9227 53.0173 55.7784 53.0554 55.6738 53.1326C55.6067 53.1814 55.5729 53.2474 55.5729 53.33C55.5729 53.4052 55.6046 53.4695 55.6679 53.5232C55.7484 53.5913 55.9442 53.6621 56.2548 53.7361C56.5654 53.8096 56.795 53.8858 56.9436 53.9641C57.0927 54.043 57.2097 54.1503 57.2934 54.2866C57.3776 54.4228 57.42 54.5913 57.42 54.7919C57.42 54.9738 57.369 55.1438 57.2681 55.3021C57.1673 55.4609 57.0246 55.5789 56.84 55.6561C56.6555 55.7334 56.4259 55.7715 56.1502 55.7715C55.7494 55.7715 55.442 55.6797 55.2269 55.4947C55.0123 55.3101 54.8841 55.0408 54.8423 54.6867Z" fill="var(--fill-0, white)"/>
<path id="Vector_43" fill-rule="evenodd" clip-rule="evenodd" d="M59.9879 54.5471L60.608 54.7376C60.5131 55.0863 60.3543 55.3459 60.1333 55.5154C59.9112 55.685 59.6306 55.7692 59.29 55.7692C58.8688 55.7692 58.5228 55.6254 58.2514 55.3373C57.9799 55.0498 57.8442 54.656 57.8442 54.1566C57.8442 53.6287 57.981 53.2183 58.2535 52.926C58.526 52.6341 58.8844 52.4882 59.3286 52.4882C59.717 52.4882 60.0324 52.6025 60.2744 52.8326C60.4187 52.9683 60.527 53.1636 60.5989 53.4179L59.9659 53.5686C59.9283 53.4045 59.85 53.2747 59.7309 53.1797C59.6118 53.0842 59.467 53.037 59.2969 53.037C59.0614 53.037 58.8704 53.1212 58.724 53.2902C58.5775 53.4587 58.504 53.7317 58.504 54.1094C58.504 54.5096 58.5765 54.795 58.7208 54.965C58.8651 55.1351 59.0528 55.2204 59.2841 55.2204C59.4541 55.2204 59.6011 55.1662 59.7239 55.0578C59.8463 54.9495 59.9342 54.7794 59.9879 54.5471Z" fill="var(--fill-0, white)"/>
<path id="Vector_44" fill-rule="evenodd" clip-rule="evenodd" d="M61.1601 55.7145V52.5435H61.8023V53.7924H63.0512V52.5435H63.6933V55.7145H63.0512V54.3289H61.8023V55.7145H61.1601Z" fill="var(--fill-0, white)"/>
<path id="Vector_45" fill-rule="evenodd" clip-rule="evenodd" d="M64.8878 54.1267C64.8878 54.4861 64.971 54.7586 65.1373 54.9442C65.303 55.1299 65.5144 55.2227 65.7703 55.2227C66.0262 55.2227 66.2359 55.1304 66.3995 54.9464C66.5637 54.7624 66.6458 54.4861 66.6458 54.1176C66.6458 53.7538 66.5658 53.4824 66.4065 53.3032C66.2467 53.1246 66.0348 53.035 65.7703 53.035C65.5058 53.035 65.2923 53.1257 65.1308 53.307C64.9688 53.4883 64.8878 53.7614 64.8878 54.1267ZM64.228 54.1481C64.228 53.8247 64.2763 53.5527 64.3728 53.3333C64.4452 53.1713 64.5434 53.0264 64.6684 52.8977C64.7934 52.7689 64.9302 52.674 65.0783 52.6117C65.2762 52.528 65.5042 52.4857 65.7622 52.4857C66.23 52.4857 66.6039 52.631 66.885 52.9213C67.1656 53.212 67.3056 53.6154 67.3056 54.1331C67.3056 54.646 67.1667 55.0472 66.8883 55.3369C66.6098 55.6266 66.2375 55.7715 65.7708 55.7715C65.2993 55.7715 64.9243 55.6277 64.6459 55.3391C64.3669 55.051 64.228 54.654 64.228 54.1481Z" fill="var(--fill-0, white)"/>
<path id="Vector_46" fill-rule="evenodd" clip-rule="evenodd" d="M68.3302 54.1267C68.3302 54.4861 68.4133 54.7586 68.5796 54.9442C68.7459 55.1299 68.9567 55.2227 69.2126 55.2227C69.4685 55.2227 69.6783 55.1304 69.8424 54.9464C70.0066 54.7624 70.0881 54.4861 70.0881 54.1176C70.0881 53.7538 70.0082 53.4824 69.8489 53.3032C69.689 53.1246 69.4771 53.035 69.2126 53.035C68.9481 53.035 68.7346 53.1257 68.5732 53.307C68.4112 53.4883 68.3302 53.7614 68.3302 54.1267ZM67.6703 54.1481C67.6703 53.8247 67.7186 53.5527 67.8157 53.3333C67.8876 53.1713 67.9857 53.0264 68.1107 52.8977C68.2357 52.7689 68.3725 52.674 68.5211 52.6117C68.7185 52.528 68.9465 52.4857 69.2051 52.4857C69.6724 52.4857 70.0468 52.631 70.3274 52.9213C70.6079 53.212 70.748 53.6154 70.748 54.1331C70.748 54.646 70.609 55.0472 70.3306 55.3369C70.0522 55.6266 69.6799 55.7715 69.2137 55.7715C68.7416 55.7715 68.3666 55.6277 68.0882 55.3391C67.8098 55.051 67.6703 54.654 67.6703 54.1481Z" fill="var(--fill-0, white)"/>
<path id="Vector_47" fill-rule="evenodd" clip-rule="evenodd" d="M71.2628 55.7145V52.5703H71.905V55.1786H73.495V55.7145H71.2628Z" fill="var(--fill-0, white)"/>
<path id="Vector_48" d="M24.4458 49.2254L24.3573 54.1635" stroke="var(--stroke-0, #2A94C9)" stroke-width="0.187263" stroke-miterlimit="3.864"/>
<path id="Vector_49" d="M78.7404 49.3821V53.9882" stroke="var(--stroke-0, #2A94C9)" stroke-width="0.187263" stroke-miterlimit="3.864"/>
<path id="Vector_50" d="M67.9788 46.2608L68.0233 50.5787" stroke="var(--stroke-0, #3DA6DC)" stroke-width="0.187263" stroke-miterlimit="3.864"/>
<path id="Vector_51" d="M35.34 46.5921V50.622" stroke="var(--stroke-0, #3DA6DC)" stroke-width="0.187263" stroke-miterlimit="3.864"/>
<path id="Vector_52" fill-rule="evenodd" clip-rule="evenodd" d="M41.5894 60.0106L41.6189 61.3126H41.5008C41.4451 60.9869 41.3083 60.7246 41.0899 60.5261C40.8721 60.3276 40.6361 60.2284 40.3823 60.2284C40.1865 60.2284 40.031 60.2809 39.9167 60.3856C39.8024 60.4896 39.745 60.6103 39.745 60.7466C39.745 60.833 39.7654 60.9091 39.8056 60.9762C39.8614 61.0669 39.9505 61.1559 40.0739 61.2439C40.164 61.3072 40.3721 61.4193 40.6988 61.5802C41.1564 61.805 41.4649 62.0169 41.6242 62.2159C41.7814 62.4155 41.8603 62.6435 41.8603 62.9005C41.8603 63.2261 41.7331 63.5067 41.4789 63.7411C41.224 63.9761 40.9011 64.0935 40.5089 64.0935C40.3861 64.0935 40.2697 64.0807 40.1602 64.056C40.0508 64.0313 39.9135 63.9841 39.7482 63.9149C39.656 63.8768 39.5803 63.8575 39.5208 63.8575C39.4709 63.8575 39.4178 63.8774 39.362 63.916C39.3067 63.9546 39.2611 64.0136 39.2268 64.0935H39.1265V62.6204H39.2268C39.311 63.034 39.4741 63.3495 39.715 63.5667C39.9564 63.7845 40.216 63.8929 40.4945 63.8929C40.7096 63.8929 40.8812 63.8344 41.0089 63.7175C41.1366 63.6005 41.2004 63.4643 41.2004 63.3092C41.2004 63.217 41.1758 63.1279 41.1269 63.0416C41.0781 62.9552 41.0036 62.8731 40.9038 62.7959C40.804 62.7181 40.627 62.6167 40.3732 62.4922C40.0181 62.3179 39.7627 62.1693 39.6082 62.0464C39.4532 61.9236 39.3341 61.7862 39.2515 61.6344C39.1683 61.4831 39.1265 61.3158 39.1265 61.1334C39.1265 60.8228 39.2408 60.5578 39.4688 60.3389C39.6973 60.12 39.9854 60.0106 40.3324 60.0106C40.459 60.0106 40.5819 60.0256 40.701 60.0562C40.7911 60.0787 40.9011 60.1216 41.0304 60.1828C41.1602 60.2445 41.2509 60.2756 41.3024 60.2756C41.3522 60.2756 41.3914 60.2606 41.4204 60.23C41.4493 60.1999 41.4762 60.1264 41.5008 60.0106H41.5894Z" fill="var(--fill-0, white)"/>
<path id="Vector_53" fill-rule="evenodd" clip-rule="evenodd" d="M43.3468 61.3122V63.4452C43.3468 63.6373 43.3688 63.7596 43.4139 63.8127C43.4584 63.8663 43.5464 63.8964 43.6768 63.9044V64.0047H42.2096V63.9044C42.3313 63.9007 42.4215 63.8658 42.4805 63.7998C42.5196 63.7553 42.5395 63.6373 42.5395 63.4452V61.8718C42.5395 61.6803 42.5169 61.5574 42.4719 61.5038C42.4268 61.4507 42.3394 61.4201 42.2096 61.4126V61.3122H43.3468ZM42.9418 60.0103C43.0663 60.0103 43.172 60.0537 43.2583 60.1412C43.3447 60.2286 43.3881 60.3337 43.3881 60.4566C43.3881 60.5794 43.3442 60.6841 43.2567 60.7704C43.1698 60.8563 43.0647 60.8997 42.9418 60.8997C42.819 60.8997 42.7144 60.8563 42.628 60.7704C42.5416 60.6841 42.4982 60.5794 42.4982 60.4566C42.4982 60.3337 42.5416 60.2286 42.628 60.1412C42.7144 60.0537 42.819 60.0103 42.9418 60.0103Z" fill="var(--fill-0, white)"/>
<path id="Vector_54" fill-rule="evenodd" clip-rule="evenodd" d="M45.032 61.3122V61.6599C45.1699 61.5118 45.3019 61.404 45.4285 61.3364C45.5551 61.2693 45.6913 61.2355 45.8367 61.2355C46.0111 61.2355 46.1554 61.2838 46.2707 61.3809C46.3855 61.478 46.4622 61.5987 46.5003 61.7425C46.5309 61.8519 46.5465 62.0622 46.5465 62.3734V63.4216C46.5465 63.6281 46.5647 63.7574 46.6022 63.8078C46.6393 63.8588 46.717 63.891 46.8351 63.9044V64.0047H45.4741V63.9044C45.576 63.891 45.649 63.8492 45.693 63.7778C45.7241 63.7301 45.7391 63.611 45.7391 63.4216V62.2237C45.7391 62.0027 45.7305 61.8632 45.7133 61.8058C45.6962 61.7484 45.6672 61.7039 45.6259 61.6717C45.5851 61.64 45.5395 61.6245 45.4902 61.6245C45.326 61.6245 45.1731 61.7403 45.032 61.9721V63.4216C45.032 63.6228 45.0508 63.7504 45.0884 63.8041C45.1259 63.8577 45.1957 63.891 45.2971 63.9044V64.0047H43.9361V63.9044C44.0487 63.8931 44.1287 63.8567 44.1764 63.795C44.2086 63.7531 44.2247 63.6281 44.2247 63.4216V61.8954C44.2247 61.6899 44.2064 61.5617 44.1694 61.5113C44.1319 61.4608 44.0541 61.4276 43.9361 61.4126V61.3122H45.032Z" fill="var(--fill-0, white)"/>
<path id="Vector_55" fill-rule="evenodd" clip-rule="evenodd" d="M49.3991 63.3052L49.4882 63.3739C49.3616 63.6121 49.2033 63.7897 49.0145 63.9055C48.8251 64.0219 48.6234 64.0799 48.4104 64.0799C48.051 64.0799 47.764 63.9447 47.5484 63.6754C47.3332 63.405 47.2259 63.081 47.2259 62.7017C47.2259 62.3359 47.3236 62.0145 47.5194 61.7372C47.7554 61.4019 48.0811 61.2345 48.4957 61.2345C48.7742 61.2345 48.9952 61.3043 49.1599 61.4443C49.3235 61.5843 49.4061 61.7399 49.4061 61.9121C49.4061 62.0215 49.3728 62.1084 49.3069 62.1739C49.2403 62.2388 49.1534 62.2715 49.0461 62.2715C48.9324 62.2715 48.8391 62.2339 48.765 62.1594C48.6915 62.0848 48.6459 61.9512 48.6282 61.7597C48.6164 61.639 48.5891 61.5548 48.5451 61.5065C48.5006 61.4588 48.4491 61.4346 48.3895 61.4346C48.2973 61.4346 48.2184 61.4834 48.1535 61.5811C48.0537 61.7286 48.0033 61.9539 48.0033 62.2581C48.0033 62.5107 48.044 62.7516 48.1245 62.9823C48.2055 63.2124 48.316 63.3841 48.456 63.4968C48.5617 63.5794 48.6867 63.6201 48.831 63.6201C48.9254 63.6201 49.015 63.5981 49.0993 63.5547C49.184 63.5107 49.2838 63.4276 49.3991 63.3052Z" fill="var(--fill-0, white)"/>
<path id="Vector_56" fill-rule="evenodd" clip-rule="evenodd" d="M51.3956 62.3713C51.3956 62.0628 51.379 61.8509 51.3452 61.7361C51.3114 61.6213 51.2593 61.5339 51.188 61.4748C51.1478 61.44 51.0941 61.4228 51.0265 61.4228C50.9267 61.4228 50.8452 61.4716 50.7819 61.5693C50.6687 61.7399 50.6118 61.9738 50.6118 62.2709V62.3713H51.3956ZM52.1027 62.5601H50.6236C50.6408 62.9163 50.7363 63.1985 50.909 63.405C51.0421 63.5643 51.2014 63.6437 51.3881 63.6437C51.5034 63.6437 51.608 63.6121 51.7019 63.5477C51.7963 63.4839 51.8972 63.3685 52.005 63.2017L52.1027 63.2666C51.9567 63.5627 51.7958 63.772 51.6193 63.8953C51.4428 64.0182 51.2384 64.0799 51.0061 64.0799C50.607 64.0799 50.3045 63.9265 50.0995 63.6207C49.9343 63.3734 49.8522 63.0671 49.8522 62.7017C49.8522 62.2538 49.9735 61.897 50.2159 61.632C50.4584 61.3665 50.7433 61.234 51.0694 61.234C51.342 61.234 51.5785 61.3456 51.7786 61.5682C51.9793 61.7914 52.0876 62.1218 52.1027 62.5601Z" fill="var(--fill-0, white)"/>
<path id="Vector_57" fill-rule="evenodd" clip-rule="evenodd" d="M55.6368 60.0221V63.2151C55.6368 63.4565 55.6475 63.6104 55.6684 63.6775C55.6899 63.7435 55.7339 63.7987 55.8015 63.8411C55.8685 63.8835 55.9763 63.9044 56.1244 63.9044H56.214V64.0047H54.1578V63.9044H54.2613C54.4287 63.9044 54.5478 63.8851 54.6186 63.8465C54.6894 63.8078 54.7377 63.7547 54.7629 63.6877C54.7876 63.6201 54.7999 63.4624 54.7999 63.2151V61.1883C54.7999 61.0065 54.7913 60.8927 54.7741 60.8477C54.7564 60.8021 54.7243 60.7635 54.677 60.7318C54.6304 60.7001 54.5757 60.6841 54.5145 60.6841C54.4163 60.6841 54.2972 60.7152 54.1567 60.7763L54.1047 60.676L55.5418 60.0221H55.6368Z" fill="var(--fill-0, white)"/>
<path id="Vector_58" fill-rule="evenodd" clip-rule="evenodd" d="M58.4941 62.1919C58.5097 61.9768 58.5177 61.7875 58.5177 61.6244C58.5177 61.2751 58.478 60.9495 58.3976 60.648C58.352 60.4812 58.2844 60.3583 58.1948 60.2795C58.1476 60.2371 58.0853 60.2162 58.0092 60.2162C57.9142 60.2162 57.8396 60.2575 57.7865 60.3401C57.712 60.4533 57.6755 60.6695 57.6755 60.9881C57.6755 61.5198 57.7383 61.8867 57.8649 62.0884C57.9469 62.2188 58.0585 62.2842 58.198 62.2842C58.2726 62.2842 58.3713 62.2536 58.4941 62.1919ZM56.8445 64.0867V64.0041C57.1626 63.9317 57.4325 63.8239 57.6535 63.6817C57.875 63.5395 58.0499 63.3636 58.1798 63.1538C58.309 62.9446 58.3992 62.7032 58.4512 62.4301C58.3321 62.4902 58.2307 62.5321 58.1476 62.5551C58.0639 62.5787 57.9759 62.5905 57.8836 62.5905C57.5886 62.5905 57.3423 62.4843 57.1455 62.2719C56.9486 62.0594 56.8504 61.7687 56.8504 61.3991C56.8504 61.1426 56.9035 60.9082 57.0092 60.6947C57.116 60.4812 57.2672 60.316 57.4647 60.1985C57.6615 60.0805 57.8659 60.0214 58.0784 60.0214C58.3058 60.0214 58.5215 60.0869 58.7243 60.2172C58.927 60.3481 59.0885 60.537 59.2092 60.7848C59.3294 61.0321 59.3895 61.3143 59.3895 61.6308C59.3895 62.0417 59.2918 62.4355 59.096 62.8116C58.9002 63.1876 58.6078 63.4896 58.22 63.7171C57.8321 63.9446 57.374 64.0674 56.8445 64.0867Z" fill="var(--fill-0, white)"/>
<path id="Vector_59" fill-rule="evenodd" clip-rule="evenodd" d="M60.8224 62.2563C60.7629 62.3105 60.7205 62.3593 60.6953 62.4038C60.6566 62.4714 60.6218 62.5696 60.5912 62.6989C60.5601 62.8277 60.5445 62.9628 60.5445 63.1034C60.5445 63.2847 60.5676 63.4365 60.6137 63.5588C60.6599 63.6812 60.7253 63.7691 60.8101 63.8233C60.8954 63.8775 60.9833 63.9043 61.0729 63.9043C61.213 63.9043 61.3304 63.8528 61.4265 63.7493C61.522 63.6457 61.5702 63.5041 61.5702 63.3244C61.5734 62.9494 61.324 62.5932 60.8224 62.2563ZM61.3932 61.6576C61.4651 61.5621 61.5182 61.4549 61.5531 61.3363C61.5879 61.2172 61.6051 61.0874 61.6051 60.9458C61.6051 60.6968 61.5515 60.5064 61.4442 60.3744C61.3632 60.2725 61.2516 60.2221 61.1094 60.2221C60.9807 60.2221 60.8707 60.2682 60.7806 60.361C60.6899 60.4538 60.6448 60.5686 60.6448 60.706C60.6448 60.8454 60.6958 60.9903 60.7967 61.14C60.8981 61.2902 61.0965 61.4624 61.3932 61.6576ZM61.6142 61.8025C61.8894 62.0042 62.0809 62.1914 62.1877 62.3652C62.2944 62.5385 62.3476 62.7375 62.3476 62.9618C62.3476 63.2767 62.2295 63.5422 61.9924 63.7606C61.7553 63.9778 61.4334 64.0867 61.0263 64.0867C60.6406 64.0867 60.3417 63.9918 60.1309 63.8013C59.9196 63.6109 59.8144 63.3786 59.8144 63.1034C59.8144 62.8942 59.875 62.7107 59.9968 62.553C60.1186 62.3953 60.3214 62.251 60.6051 62.1206C60.2956 61.8878 60.0971 61.6963 60.0097 61.5466C59.9228 61.3969 59.8788 61.2236 59.8788 61.0262C59.8788 60.7655 59.9898 60.5359 60.2114 60.3369C60.4329 60.1389 60.7371 60.0397 61.1228 60.0397C61.4951 60.0397 61.7816 60.1271 61.9822 60.3025C62.1829 60.4785 62.2832 60.6888 62.2832 60.934C62.2832 61.118 62.229 61.2805 62.1201 61.4216C62.0112 61.5627 61.8428 61.6898 61.6142 61.8025Z" fill="var(--fill-0, white)"/>
<path id="Vector_60" fill-rule="evenodd" clip-rule="evenodd" d="M64.9911 64.0047H62.6951V63.9414C63.4026 63.1035 63.8302 62.5397 63.9799 62.25C64.129 61.9603 64.2036 61.6776 64.2036 61.4013C64.2036 61.2001 64.1413 61.0328 64.0163 60.8997C63.8919 60.7661 63.7395 60.6996 63.5588 60.6996C63.2632 60.6996 63.0341 60.8477 62.8705 61.1427L62.7643 61.1057C62.8678 60.7366 63.025 60.4641 63.2363 60.2871C63.4472 60.1106 63.6907 60.0221 63.967 60.0221C64.1644 60.0221 64.3447 60.0682 64.5077 60.1599C64.6708 60.2522 64.7985 60.3788 64.8908 60.5387C64.9825 60.6985 65.0286 60.8487 65.0286 60.9888C65.0286 61.2441 64.9578 61.5032 64.8157 61.7661C64.6225 62.1207 64.2004 62.6158 63.5491 63.2505H64.3908C64.5979 63.2505 64.7325 63.2424 64.7947 63.2247C64.8575 63.2081 64.9085 63.1786 64.9487 63.1378C64.9889 63.097 65.0415 63.0107 65.107 62.8792H65.211L64.9911 64.0047Z" fill="var(--fill-0, white)"/>
<path id="Vector_61" d="M101.687 33.1003C101.687 33.2419 101.648 33.3578 101.569 33.4469C101.492 33.5381 101.386 33.5815 101.251 33.5815H100.006C99.8792 33.5815 99.7768 33.5381 99.6936 33.4469C99.6115 33.3578 99.5702 33.2419 99.5702 33.1003V15.9262C99.5702 15.8087 99.6072 15.7035 99.6818 15.6091C99.7553 15.5158 99.8631 15.4675 100.006 15.4675H101.251C101.386 15.4675 101.492 15.5104 101.569 15.5962C101.648 15.6842 101.687 15.7931 101.687 15.9262V33.1003Z" fill="var(--fill-0, white)"/>
<path id="Vector_62" d="M119.321 25.7723L117.133 17.8547C117.053 17.5661 116.9 17.4191 116.673 17.4191C116.431 17.4191 116.269 17.5661 116.193 17.8547L114.003 25.7723H119.321ZM123.589 33.1942C123.589 33.4528 123.453 33.5815 123.179 33.5815H121.755C121.535 33.5815 121.399 33.4603 121.344 33.2173L119.779 27.6778H113.544L112.003 33.2173C111.981 33.3197 111.921 33.4061 111.827 33.4764C111.733 33.5483 111.648 33.5815 111.568 33.5815H110.145C110.035 33.5815 109.94 33.5461 109.856 33.4689C109.776 33.397 109.734 33.3042 109.734 33.1942C109.734 33.1164 109.741 33.0612 109.757 33.03L114.215 17.3505C114.411 16.667 114.736 16.1917 115.192 15.9197C115.647 15.651 116.14 15.5152 116.673 15.5152C117.019 15.5152 117.349 15.5667 117.662 15.674C117.975 15.7792 118.262 15.9675 118.521 16.2384C118.78 16.5077 118.976 16.8714 119.108 17.3263L123.567 33.03C123.583 33.0612 123.589 33.1164 123.589 33.1942Z" fill="var(--fill-0, white)"/>
<path id="Vector_63" d="M127.802 33.1003C127.802 33.2419 127.762 33.3578 127.684 33.4469C127.606 33.5381 127.5 33.5815 127.367 33.5815H126.118C125.993 33.5815 125.89 33.5381 125.808 33.4469C125.726 33.3578 125.685 33.2419 125.685 33.1003V15.9262C125.685 15.8087 125.721 15.7035 125.796 15.6091C125.871 15.5158 125.979 15.4675 126.118 15.4675H127.367C127.5 15.4675 127.606 15.5104 127.684 15.5962C127.762 15.6842 127.802 15.7931 127.802 15.9262V33.1003Z" fill="var(--fill-0, white)"/>
<path id="Vector_64" d="M134.354 31.9474C136.103 31.9474 136.978 31.3364 136.978 30.1127C136.978 29.7356 136.853 29.4143 136.602 29.1482C136.35 28.881 135.875 28.5667 135.178 28.2072L132.743 26.96C131.943 26.5362 131.334 26.0426 130.914 25.4777C130.495 24.9134 130.284 24.2348 130.284 23.4419C130.284 22.6115 130.499 21.9554 130.93 21.472C131.363 20.9903 131.92 20.6512 132.6 20.4544C133.284 20.2591 134.044 20.1604 134.883 20.1604C135.535 20.1604 136.182 20.2312 136.831 20.3728C137.477 20.5144 137.954 20.67 138.26 20.8428C138.384 20.9141 138.471 20.9699 138.518 21.015C138.566 21.0568 138.59 21.1416 138.59 21.266V22.2547C138.59 22.3953 138.54 22.4988 138.441 22.5669C138.344 22.6329 138.208 22.6356 138.036 22.5718C137.589 22.3995 137.069 22.2558 136.478 22.1442C135.883 22.0294 135.354 21.9725 134.883 21.9725C134.131 21.9725 133.529 22.0659 133.078 22.2547C132.628 22.4425 132.401 22.8314 132.401 23.4194C132.401 23.8271 132.53 24.1742 132.79 24.4595C133.049 24.7466 133.472 25.0427 134.06 25.3485L136.448 26.5716C137.123 26.9165 137.651 27.2647 138.036 27.6187C138.421 27.9717 138.692 28.3397 138.854 28.7239C139.014 29.1085 139.094 29.5403 139.094 30.0178C139.094 30.8423 138.891 31.5333 138.483 32.095C138.075 32.6539 137.515 33.0702 136.8 33.3422C136.087 33.611 135.272 33.7478 134.354 33.7478C133.657 33.7478 132.971 33.6673 132.3 33.5064C131.631 33.3449 131.11 33.1711 130.741 32.9823C130.515 32.8648 130.401 32.7199 130.401 32.5477V31.559C130.401 31.4185 130.452 31.3128 130.555 31.2414C130.657 31.1712 130.789 31.1712 130.955 31.2414C132.155 31.713 133.287 31.9474 134.354 31.9474Z" fill="var(--fill-0, white)"/>
<path id="Vector_65" d="M145.094 31.9474C146.843 31.9474 147.717 31.3364 147.717 30.1127C147.717 29.7356 147.591 29.4143 147.34 29.1482C147.091 28.881 146.616 28.5667 145.918 28.2072L143.482 26.96C142.682 26.5362 142.071 26.0426 141.654 25.4777C141.233 24.9134 141.023 24.2348 141.023 23.4419C141.023 22.6115 141.239 21.9554 141.671 21.472C142.103 20.9903 142.659 20.6512 143.34 20.4544C144.023 20.2591 144.784 20.1604 145.623 20.1604C146.274 20.1604 146.925 20.2312 147.569 20.3728C148.218 20.5144 148.693 20.67 148.999 20.8428C149.125 20.9141 149.211 20.9699 149.258 21.015C149.305 21.0568 149.33 21.1416 149.33 21.266V22.2547C149.33 22.3953 149.279 22.4988 149.182 22.5669C149.083 22.6329 148.949 22.6356 148.776 22.5718C148.33 22.3995 147.812 22.2558 147.217 22.1442C146.625 22.0294 146.093 21.9725 145.623 21.9725C144.87 21.9725 144.267 22.0659 143.819 22.2547C143.366 22.4425 143.141 22.8314 143.141 23.4194C143.141 23.8271 143.271 24.1742 143.529 24.4595C143.788 24.7466 144.211 25.0427 144.8 25.3485L147.188 26.5716C147.862 26.9165 148.391 27.2647 148.776 27.6187C149.161 27.9717 149.434 28.3397 149.593 28.7239C149.755 29.1085 149.834 29.5403 149.834 30.0178C149.834 30.8423 149.631 31.5333 149.223 32.095C148.815 32.6539 148.254 33.0702 147.54 33.3422C146.827 33.611 146.012 33.7478 145.094 33.7478C144.395 33.7478 143.711 33.6673 143.042 33.5064C142.37 33.3449 141.851 33.1711 141.482 32.9823C141.255 32.8648 141.141 32.7199 141.141 32.5477V31.559C141.141 31.4185 141.193 31.3128 141.295 31.2414C141.395 31.1712 141.529 31.1712 141.694 31.2414C142.894 31.713 144.027 31.9474 145.094 31.9474Z" fill="var(--fill-0, white)"/>
<path id="Vector_66" d="M160.362 27.8779V26.0426C160.362 25.2031 160.247 24.4832 160.015 23.8845C159.786 23.2836 159.427 22.8239 158.945 22.502C158.462 22.1801 157.853 22.0197 157.116 22.0197C156.026 22.0197 155.214 22.3722 154.681 23.0717C154.148 23.7745 153.881 24.7643 153.881 26.0426V27.8779C153.881 30.5591 154.959 31.9008 157.116 31.9008C158.207 31.9008 159.018 31.5526 159.558 30.8536C160.094 30.1551 160.362 29.1632 160.362 27.8779ZM162.48 27.8779C162.48 29.6804 162.02 31.1095 161.097 32.1652C160.175 33.2188 158.849 33.7478 157.116 33.7478C155.39 33.7478 154.068 33.2188 153.145 32.1652C152.225 31.1095 151.765 29.6804 151.765 27.8779V26.0426C151.765 24.231 152.225 22.7971 153.145 21.7445C154.068 20.6866 155.39 20.1604 157.116 20.1604C158.849 20.1604 160.175 20.6866 161.097 21.7445C162.02 22.7971 162.48 24.231 162.48 26.0426V27.8779Z" fill="var(--fill-0, white)"/>
<path id="Vector_67" d="M174.914 25.1956V33.1003C174.914 33.2328 174.864 33.3476 174.761 33.442C174.659 33.5359 174.55 33.5815 174.432 33.5815H173.279C173.146 33.5815 173.032 33.5359 172.938 33.442C172.843 33.3476 172.796 33.2328 172.796 33.1003V25.1956C172.796 24.3952 172.702 23.76 172.507 23.2901C172.318 22.8191 172.015 22.4822 171.602 22.2784C171.191 22.0745 170.657 21.9726 169.997 21.9726C169.009 21.9726 167.974 22.1174 166.892 22.4082V33.1003C166.892 33.2258 166.843 33.3364 166.745 33.4367C166.647 33.5338 166.535 33.5815 166.409 33.5815H165.233C165.115 33.5815 165.009 33.5359 164.915 33.442C164.821 33.3476 164.774 33.2328 164.774 33.1003V21.4903C164.774 21.1926 164.919 21.0005 165.21 20.9147C167.161 20.412 168.821 20.1604 170.186 20.1604C171.088 20.1604 171.85 20.2725 172.475 20.4973C173.097 20.7189 173.583 21.0429 173.934 21.4672C174.28 21.89 174.532 22.405 174.686 23.0144C174.836 23.6211 174.914 24.3491 174.914 25.1956Z" fill="var(--fill-0, white)"/>
<path id="Vector_68" d="M86.9237 15.5666H96.4876C96.4876 15.5666 96.9935 15.5875 96.9935 15.9968V17.0375C96.9935 17.0375 97.0584 17.4131 96.7344 17.4909H89.1113V23.35H96.5101C96.5101 23.35 96.9935 23.4053 96.9935 23.8307V24.7373C96.9935 24.7373 96.9833 25.2196 96.5101 25.2196H89.1113V29.912C89.1113 29.912 89.1462 31.4538 90.4262 31.6104C90.4262 31.6104 91.1864 31.7719 92.0769 31.7719H96.7344C96.7344 31.7719 96.9806 31.7697 96.987 31.9838V33.2885C96.987 33.2885 96.987 33.6098 96.7585 33.6302H90.8999C90.8999 33.6302 86.9553 33.8378 86.9237 29.2656V15.5666Z" fill="var(--fill-0, white)"/>
</g>
</svg>
