<svg width="42" height="80" viewBox="0 0 42 80" fill="none" xmlns="http://www.w3.org/2000/svg">
<path d="M19.4214 0.0441756C21.685 -0.063045 23.8309 -0.0150259 26 0.644907C44.6245 6.31072 47.0682 33.4884 31.6445 43.8995C31.0127 44.3255 30.3578 44.7163 29.6828 45.07C29.1919 45.3254 26.9529 46.1658 27.0343 46.579C27.1664 46.6549 27.3491 46.704 27.5009 46.6996C29.6505 46.6377 31.8501 46.906 33.9846 46.8899L33.9907 47.9365C31.73 47.906 29.0725 47.8795 26.8316 47.9807C26.767 48.6171 26.7575 49.2585 26.8031 49.8966C27.559 49.9064 28.3149 49.9081 29.0708 49.9009C29.1229 50.5395 29.1684 51.1902 29.2567 51.8233C29.9257 51.8935 30.8104 51.8584 31.4856 51.8327C31.4916 51.1951 31.5069 50.5582 31.5305 49.9218C32.3456 49.9042 33.1739 49.9048 33.9907 49.8982L33.9649 50.9085C33.4847 50.8843 32.9508 50.8849 32.4662 50.8767C32.333 52.0393 32.4454 53.3423 32.3555 54.5165C32.2952 55.3014 32.4892 56.2207 31.7624 56.719C31.5842 60.4662 31.6845 64.8729 31.7602 68.6366C32.5347 68.6793 33.2161 68.7111 33.9945 68.7095L33.9742 69.8431C32.5539 69.7685 30.833 69.8102 29.4014 69.8234C29.3146 65.5159 29.5084 61.1799 29.2762 56.8807C29.2633 56.6417 28.8942 56.2322 28.7424 56.0469C28.6723 55.3316 28.8039 54.1234 28.6713 53.5013C28.4247 52.343 28.2589 52.1204 28.2434 50.8882C27.6332 50.8717 27.035 50.8843 26.4249 50.8948C26.1028 53.5725 26.5423 56.6187 26.3231 59.3288C26.2457 60.287 26.0585 61.3263 25.9227 62.2845C25.7147 63.7525 25.5372 65.1936 25.4216 66.6714C25.231 68.8443 24.9044 70.736 25.199 72.9243C25.9735 72.9183 26.748 72.9183 27.5224 72.9232C27.7377 73.3047 28.3074 74.287 28.3873 74.6801C28.6758 76.1009 28.5405 78.281 28.5214 79.7763L24.8615 79.8334C24.8581 79.4897 24.8211 79.2611 24.77 78.919L24.7084 78.8637C24.4283 78.8204 24.1259 78.8582 23.8406 78.8807C23.7901 79.2918 23.7661 79.5861 23.753 80C21.6073 79.9704 19.4525 80.0104 17.302 79.9825C17.2941 79.5056 17.389 78.9897 16.8842 78.731C16.3298 78.7518 16.2989 79.3882 16.2795 79.8021C15.0612 79.7928 13.8429 79.7961 12.6248 79.812C12.6198 78.5666 12.4569 75.664 12.7801 74.6296C12.958 74.0601 13.3262 73.5465 13.5558 72.9928L13.5827 72.9276C14.2747 72.9007 14.9662 72.8618 15.6568 72.8103C15.8509 70.6133 15.6328 69.2549 15.3957 67.1039C15.3445 66.1545 15.3531 65.2352 15.2237 64.2913C14.875 62.0455 14.4795 59.9932 14.4464 57.7133C14.4184 55.7942 14.889 52.7064 14.2494 50.9529C13.5908 50.8547 12.2379 50.8822 11.5285 50.8783C11.5333 52.5985 11.2266 54.4046 11.179 56.1368C11.1721 56.389 10.8318 56.4838 10.819 56.9481C10.7779 58.4309 10.7799 59.9098 10.7795 61.3926C10.79 64.2003 10.7833 67.008 10.7594 69.8157C9.74938 69.8195 8.73933 69.814 7.72945 69.7987C7.75171 69.5948 7.77988 69.279 7.85032 69.0976C7.92707 68.8942 8.24308 68.5154 8.24292 68.2951C8.24138 65.8278 8.29878 63.3633 8.25141 60.8954C8.23108 59.8358 8.2706 58.7691 8.19117 57.7117C8.12786 56.8681 7.94017 56.0365 7.8421 55.1967C7.75516 54.4611 7.50876 50.2282 8.22302 49.9393C8.42639 50.1673 8.39936 51.444 8.41131 51.825C9.13253 51.8869 9.97813 51.8579 10.7003 51.8299C10.7035 51.1891 10.7109 50.5489 10.7226 49.9086C11.6848 49.8061 13.1275 49.7853 14.128 49.7365C14.1006 49.1028 14.0621 48.6226 13.988 47.9921C12.0003 47.8533 9.7587 47.9623 7.72233 47.9212C7.69969 47.6152 7.71761 47.2938 7.72792 46.9858C9.88121 46.7116 11.7154 46.7663 13.8332 46.6483C13.85 46.4015 13.8394 46.1875 13.8308 45.941C11.3512 44.6681 9.99972 44.0772 7.83399 42.1174C3.99307 38.5742 1.40859 33.8781 0.47052 28.7374C-0.0132887 26.2036 -0.124183 23.1007 0.138716 20.5226C0.696965 15.3164 2.8843 10.4193 6.38898 6.5291C9.68639 2.91556 14.4802 0.275226 19.4214 0.0441756Z" fill="#FEFEFE"/>
<path d="M18.8576 20.0391C19.2273 20.1514 19.2728 20.4981 19.2651 20.8435C19.2431 21.8262 19.1332 22.8625 19.0412 23.8384C19.9737 23.8889 21.1095 23.8589 22.0605 23.8552C21.8478 23.403 21.1645 20.3832 21.7523 20.2617C22.2141 20.4789 22.054 20.9496 22.2994 21.3621C22.6355 21.9271 23.099 22.4255 23.4999 22.9582C24.3111 23.0085 25.3014 22.8555 26.073 22.9671C26.5012 23.029 27.8329 24.0001 28.0403 24.3893C28.3216 25.0716 28.4633 26.0491 28.5008 26.7896C28.6174 29.0898 28.7256 31.3935 28.8315 33.6923C28.8496 34.0834 28.6152 34.8947 28.5145 35.2887C27.4101 34.5775 21.1079 30.1979 20.7846 29.4054C20.7346 29.2828 20.7635 29.2185 20.8148 29.105C22.1139 28.0448 26.0198 30.4341 27.1329 31.1957C27.3918 30.963 27.626 30.6989 27.8623 30.4427C27.2732 30.2495 27.1401 30.1129 26.6605 29.7248C26.6349 28.87 26.687 27.9932 26.6327 27.1312C26.5653 26.0587 26.4086 25.0021 26.2435 23.9418C26.0997 24.0085 25.6666 24.1964 25.644 24.3186C25.4743 25.2369 25.9472 28.2287 25.5727 28.972C25.1659 29.1167 23.8114 28.3234 23.293 28.0896C23.236 27.2667 23.2877 25.9826 23.303 25.119C22.6133 25.1093 21.9234 25.1155 21.2339 25.1375C20.956 25.1759 20.2283 25.5924 19.9211 25.748C19.1732 25.5487 18.6493 25.2696 18.15 24.6834C17.2251 25.6072 16.96 25.5283 16.5514 26.999C16.6573 27.3198 16.9126 27.7335 17.0849 28.0373C16.786 28.3601 15.6562 29.1545 15.2018 28.9675C14.9026 28.3566 15.0818 24.6166 15.0146 23.6016C14.7469 23.5876 14.5114 23.5287 14.314 23.7254C14.1784 24.3467 14.2392 25.798 14.22 26.4807C14.181 27.8668 14.164 29.1927 14.225 30.5792C15.704 29.8715 17.4357 29.2413 18.7946 28.3199C19.7109 27.6987 20.484 26.6428 21.4707 26.0775C21.7804 25.9001 22.1448 25.9445 22.4978 25.9531C22.4132 26.5225 22.3112 27.0892 22.1919 27.6523C20.6959 28.0183 20.1043 28.4591 19.0325 29.5519C18.5788 30.0166 18.0653 30.4713 17.6389 30.9613C16.0527 32.7845 13.7044 33.6687 11.5304 34.6487C11.5009 33.6225 11.6916 32.7449 11.7783 31.7407C11.8821 30.5261 11.9732 29.3482 12.189 28.1459C12.5351 26.2182 12.3287 24.3742 13.9694 23.0073C14.7046 22.89 16.4328 22.9495 17.2864 22.9542C18.2181 21.6123 18.5768 21.8804 18.8576 20.0391Z" fill="#103958"/>
<path d="M21.7352 37.7168C22.5921 37.4411 24.2635 37.3184 25.2128 37.2314C26.0316 38.6527 26.1414 47.1253 25.9575 49.0208C25.6856 48.7506 25.4896 48.5549 25.247 48.2529C24.6291 47.5022 24.0646 46.7438 23.3451 46.0901C22.7738 45.571 21.8087 45.0258 21.3673 44.43C20.9455 43.8605 20.4874 42.866 20.143 42.2082C19.6913 43.2112 18.7872 44.4959 17.9958 45.2518C17.4793 45.7452 16.8807 46.1881 16.3911 46.7356C15.8796 47.3073 15.5346 47.9431 15.0104 48.5039C14.9087 47.9021 14.9192 47.2607 14.8979 46.6495C14.8474 45.3394 14.8513 44.0267 14.8967 42.717C14.9348 41.6394 14.8606 40.5435 15.0581 39.4792C15.1961 38.7364 15.327 38.0035 15.3871 37.2499C16.5349 37.3418 18.3815 37.2699 19.6346 37.3089C20.2216 37.9728 22.1867 41.2282 22.8908 41.0549C23.0331 40.8461 23.0026 40.5898 22.9049 40.3673C22.4948 39.4331 22.0283 38.714 21.7352 37.7168Z" fill="#103958"/>
<path d="M14.3268 73.8112C14.6444 73.7838 15.0258 73.8029 15.3492 73.8101L15.3781 74.5994C16.6745 74.6389 17.4465 74.965 18.6726 75.2528C19.3466 75.044 19.971 74.3982 20.4473 73.8797C20.9736 74.4964 21.3932 74.9239 22.1005 75.3175C23.5007 74.9596 23.6783 74.7693 25.2364 74.6115C25.2428 74.3632 25.2716 74.0672 25.2898 73.815C25.8314 73.7996 26.4012 73.7838 26.9363 73.8605C27.0031 73.9762 27.0688 74.0929 27.1333 74.2102C27.2762 74.4712 27.527 74.9793 27.5766 75.2616C27.692 75.9199 27.7017 78.1373 27.5412 78.686L27.4332 78.7375C26.8815 78.7364 26.3464 78.7512 25.8 78.6739C25.7279 78.3467 25.6987 78.1131 25.6607 77.7793C24.7725 77.7475 23.8834 77.7541 22.9957 77.7979C22.9937 78.1976 22.9612 78.5676 22.9295 78.9644C21.3901 78.9918 19.8649 78.9749 18.3329 78.9984C18.2984 78.6016 18.2743 78.2036 18.2607 77.8056C17.2992 77.7969 16.3378 77.7793 15.3767 77.7525C15.3757 78.0528 15.3353 78.4091 15.3085 78.7139C14.7152 78.7276 14.1217 78.7282 13.5283 78.715L13.5217 78.5999C13.4424 77.1297 13.3116 74.9415 14.3268 73.8112Z" fill="#103958"/>
<path d="M20.0213 43.7344C20.1864 43.7845 20.8921 44.8522 21.1067 45.0811C21.6983 45.712 22.4338 46.1067 23.0482 46.6659C24.0826 47.6074 24.9726 48.9537 25.7474 50.1097C25.6375 50.6771 25.6068 51.2899 25.5638 51.8693C24.5604 51.8556 23.5492 51.8551 22.5459 51.8518C21.7395 51.849 21.4289 51.6791 20.7131 51.4182C19.8317 51.4259 19.5824 51.803 18.8949 51.8277C17.7441 51.8682 16.5087 51.8606 15.3515 51.8786C15.3055 50.8651 15.3049 50.8503 14.8945 49.9475C15.0971 49.7112 15.4436 49.1729 15.6018 48.9032C16.4368 47.4805 17.5016 46.5159 18.7233 45.444C19.1139 45.1013 19.6618 44.211 20.0213 43.7344Z" fill="#103958"/>
<path d="M15.698 54.0488C17.7276 55.0152 17.6284 57.0692 17.7671 58.9746C17.9385 61.3317 17.9703 63.6384 18.2826 65.9862C18.5001 67.6213 18.3477 68.7708 19.2213 70.2876C19.2073 70.662 19.2098 71.0583 19.2059 71.4349C19.4346 71.4777 19.6878 71.5396 19.9173 71.5911C19.9227 71.6427 19.9274 71.6942 19.9315 71.7463C20.0043 72.6765 19.6726 73.2005 19.0877 73.8874L18.5679 74.3396C17.6782 73.8452 17.5325 73.849 16.5119 73.7816C16.4496 72.4106 16.7294 71.1756 16.5717 69.7246C16.3696 67.8636 16.2312 65.9642 16.0447 64.1032C15.7644 61.3054 14.6949 56.7496 15.698 54.0488Z" fill="#103958"/>
<path d="M25.061 54.1113L25.1285 54.1585C26.2702 56.8439 25.084 61.0264 24.7906 63.844C24.5565 66.0931 24.4052 68.3701 24.1291 70.6171C24.0172 71.5275 24.287 72.7817 24.303 73.7487C23.3517 73.8874 23.0806 73.9619 22.1854 74.3128L21.6715 73.8874C21.0776 73.2384 20.9453 72.5274 20.7852 71.6991C21.9366 71.4673 21.8291 71.0967 21.4482 70.1692C21.4765 70.1467 21.5045 70.1237 21.5321 70.1001C22.7092 69.1019 22.3876 67.6509 22.6131 66.3332C22.9085 64.6081 22.9537 63.0705 23.0438 61.3328C23.1195 59.8742 23.3422 58.4237 23.3424 56.9437C23.3427 55.7306 24.1868 54.8426 25.061 54.1113Z" fill="#103958"/>
<path d="M19.7357 12.3776C21.7757 12.1869 23.1123 12.489 24.2414 14.3168C24.0704 14.8592 23.9092 15.4046 23.7575 15.9527C23.1778 18.1006 23.022 18.3832 21.0293 19.5639C20.5958 19.8208 20.7884 22.2479 20.7943 22.7832L20.7685 22.8942C20.5689 22.9797 20.2843 22.9426 20.0552 22.9346C20.2193 21.7987 20.3133 20.8569 20.2016 19.7028C19.6819 19.2593 18.9739 19.0517 18.4308 18.6113C17.0839 17.5191 17.3064 16.0217 16.5547 14.3692C17.4174 12.9357 18.1276 12.497 19.7357 12.3776Z" fill="#103958"/>
<path d="M20.3233 52.0966C21.6767 52.0483 21.1827 54.0513 21.2468 55.044L21.7778 55.2342C21.8214 56.409 21.7131 57.5853 21.7271 58.7611C21.7365 59.5494 21.9473 60.0235 22.2709 60.7175C21.7853 60.9384 21.5827 61.093 21.2005 61.4636C20.9155 63.3756 20.8677 65.2366 20.5322 67.1584L20.4571 67.233C20.1158 66.9249 20.2296 61.4224 19.1059 60.9614C18.9485 60.8973 18.7808 60.7986 18.625 60.7246C18.7961 60.3058 18.8436 60.1946 19.1319 59.8509C19.2295 58.3714 19.0852 56.5701 19.2116 55.3115C20.3354 54.3725 18.6513 52.7861 20.3233 52.0966Z" fill="#103958"/>
<path d="M19.8153 30.1465C20.2075 30.1584 24.1336 33.4636 24.7172 33.9643C23.6335 34.9993 21.8148 35.0569 20.4184 35.0469C19.4809 35.0352 17.2593 34.636 16.2649 34.3969C16.0999 34.3573 15.692 34.0369 15.5391 33.9197C17.4214 32.6179 18.1843 31.7347 19.8153 30.1465Z" fill="#103958"/>
<path d="M8.90389 52.7088C9.3946 52.6792 9.91854 52.6935 10.4122 52.6967C10.4836 53.7448 10.7374 54.7562 9.96124 55.5675C9.79049 56.8732 9.93027 58.43 9.88822 59.7593C9.79707 62.6382 9.92062 65.5731 9.77004 68.4449L9.74345 68.5661C9.61266 68.6735 9.61442 68.6636 9.44043 68.6828C9.39559 68.6642 9.27143 68.6307 9.2705 68.5776C9.1994 64.6023 9.18361 60.5969 8.98288 56.6134C8.93891 55.7401 8.01575 53.2433 8.90389 52.7088Z" fill="#103958"/>
<path d="M29.7952 52.707C30.3386 52.6746 30.8303 52.6845 31.3745 52.6927C31.3822 53.538 31.3937 54.3147 31.3005 55.1567L30.9949 55.4401C30.8288 56.6208 30.8837 58.8305 30.8844 60.0764L30.8839 68.4984L30.8502 68.6064C30.6079 68.7319 30.3692 68.7193 30.2089 68.4896C30.1328 67.5008 30.1947 66.0547 30.1863 65.0176C30.164 62.2209 30.2099 59.3255 30.1907 56.537C30.1806 55.0553 29.2284 55.0059 29.7952 52.707Z" fill="#103958"/>
<path d="M24.5999 15.7627C24.8567 15.8568 25.0263 16.1532 25.0887 16.4048C25.5236 18.1598 26.2867 20.1138 26.648 21.849C26.0032 22.0216 25.6054 22.049 24.9523 22.065C24.6363 22.0747 24.2955 22.056 23.9773 22.0447C21.9858 20.0522 23.3078 19.6392 24.1751 17.6874C24.3682 17.2528 24.4469 16.3028 24.5999 15.7627Z" fill="#103958"/>
<path d="M16.0184 15.7812L16.2101 15.8419C16.445 16.3854 16.4169 17.2424 16.7139 17.9032C17.1882 18.9587 18.5637 19.9675 17.6331 21.1274C17.1174 21.7703 16.5813 21.7661 15.8187 21.8569C15.4586 21.9624 14.5113 21.9947 14.1074 21.9956C14.2317 21.354 14.6605 20.0825 14.8885 19.4379C15.1698 18.6427 15.6146 16.3465 16.0184 15.7812Z" fill="#103958"/>
<path d="M20.1762 9.58201C21.3931 9.48668 22.175 9.65667 23.2769 10.1489C23.3336 10.2528 23.3833 10.3602 23.426 10.4706C23.557 10.8051 23.6945 11.3384 23.5475 11.6788C23.4267 11.744 23.3382 11.7461 23.2003 11.7232C22.1442 11.5474 21.2339 11.4139 20.1569 11.4144C18.7293 11.4323 18.2558 11.5742 17.0045 12.1858C16.9837 11.8024 16.8711 10.6521 17.1034 10.4281C17.6187 9.9314 19.4987 9.62789 20.1762 9.58201Z" fill="#103958"/>
<path d="M23.2529 52.3336C23.8869 52.2738 24.6437 52.3374 25.1385 52.765C25.5493 53.1202 24.4502 53.818 24.2244 54.0088C22.8976 55.1287 22.6844 56.7304 22.5896 58.4039C22.5683 58.7581 22.5831 58.9187 22.4007 59.2289L22.3367 59.2212C22.0111 58.3623 22.4753 56.2765 22.5408 55.2865C22.2914 54.8348 22.1093 54.6035 21.7994 54.1897C21.7554 53.6207 21.7842 53.3197 21.8794 52.759C22.4169 52.4915 22.6575 52.429 23.2529 52.3336Z" fill="url(#paint0_linear_11684_12600)"/>
<path d="M24.9783 35.0391L25.086 35.1002C25.1426 35.3811 25.1159 35.9259 25.1116 36.2329C23.3858 36.4598 22.4259 36.5 20.8252 37.2508C20.5785 37.0094 20.2973 36.6713 20.1266 36.373C18.8374 36.354 17.5142 36.3674 16.2222 36.3655C16.0387 36.3718 15.9165 36.3993 15.7676 36.3023C15.6161 36.0519 15.697 35.6953 15.7192 35.3731C17.6987 35.5314 19.1675 36.0204 21.2304 35.9325C23.0591 35.8545 23.3275 35.7982 24.9783 35.0391Z" fill="#103958"/>
<path d="M15.4141 52.8721C16.0249 52.6731 16.5201 52.2916 17.2055 52.3102C17.8566 52.3283 18.4502 52.5109 19.0502 52.7504C19.1373 53.2048 19.1466 53.6258 19.1377 54.0852C18.8734 54.481 18.7126 54.7145 18.4003 55.0812C18.3944 55.409 18.4294 55.6617 18.4677 55.9879C18.3673 56.2005 18.3537 56.1857 18.0955 56.3003C17.7537 54.4327 16.429 54.0172 15.4141 52.8721Z" fill="#103958"/>
<path d="M22.2354 61.5078L22.309 61.5358C22.5289 61.8795 21.8718 68.1181 21.7414 68.999C21.602 69.1048 21.4116 69.2144 21.2599 69.3087C21.2188 69.301 21.1926 69.2731 21.1529 69.2451C21.0852 68.2952 21.2044 67.2284 21.2775 66.2779C21.3912 64.7995 21.5417 63.3184 21.8126 61.8586C21.9063 61.7572 22.1196 61.5988 22.2354 61.5078Z" fill="#103958"/>
<path d="M18.5768 61.5967C18.7959 61.6712 18.8682 61.6816 19.0469 61.834C19.3381 62.5066 19.8732 68.5249 19.8483 69.4902C19.5603 69.357 19.5081 69.2699 19.2909 69.0363C19.1483 68.4794 19.1277 67.7301 19.0519 67.1364C18.8422 65.4925 18.5432 63.2423 18.5768 61.5967Z" fill="#103958"/>
<path d="M19.7926 7.70219C20.4908 7.65779 21.9483 7.73283 22.1826 8.59493L22.1231 8.67041C21.8375 8.74628 21.0639 8.71541 20.7332 8.71306C20.2447 8.71739 18.6664 8.84686 18.3466 8.5872L18.3398 8.47307C18.6259 8.09172 19.3399 7.82169 19.7926 7.70219Z" fill="#103958"/>
<path d="M17.8842 25.9736C18.0449 25.9907 19.0997 26.504 19.1662 26.5891C19.1088 26.775 18.6794 27.2546 18.5315 27.4337L18.1687 27.8799C17.7035 27.1853 17.3302 26.766 17.8842 25.9736Z" fill="#103958"/>
<path d="M18.4679 55.9873C18.5724 56.5377 18.9211 58.6859 18.6386 59.0855C18.6022 59.137 18.5922 59.1392 18.5476 59.171C18.4676 59.1228 18.4452 59.1085 18.4305 58.9786C18.3233 58.0347 18.4028 57.2349 18.0957 56.2998C18.3539 56.1852 18.3675 56.2 18.4679 55.9873Z" fill="#103958"/>
<path d="M20.414 69.4326L20.5783 69.5209C20.8242 69.9068 20.8862 70.5262 20.5805 70.8957L20.3484 70.8463C19.936 70.49 20.2272 69.852 20.414 69.4326Z" fill="#103958"/>
<defs>
<linearGradient id="paint0_linear_11684_12600" x1="22.0168" y1="52.7749" x2="24.6666" y2="57.8722" gradientUnits="userSpaceOnUse">
<stop stop-color="#0B3455"/>
<stop offset="1" stop-color="#25557A"/>
</linearGradient>
</defs>
</svg>
