<svg preserveAspectRatio="none" width="100%" height="100%" overflow="visible" style="display: block;" viewBox="0 0 93 70" fill="none" xmlns="http://www.w3.org/2000/svg">
<path id="Heading" opacity="0.4" d="M34.1422 0V9.67105C28.471 11.2061 23.4512 14.1612 19.0828 18.5362C14.7911 22.8344 12.6452 27.0175 12.6452 31.0855C12.6452 34.0789 13.7182 35.5757 15.864 35.5757C16.4005 35.5757 17.4734 35.3454 19.0828 34.8849C20.6922 34.4243 22.1867 34.1941 23.5661 34.1941C28.9308 34.1941 33.0692 36.0362 35.9815 39.7204C38.9703 43.3278 40.4648 47.2423 40.4648 51.4638C40.4648 56.7599 38.6638 61.1732 35.0618 64.7039C31.5365 68.2346 27.2831 70 22.3016 70C15.4042 70 9.96292 67.5055 5.97775 62.5164C1.99258 57.4507 0 50.9265 0 42.9441C0 33.5033 3.02719 24.7149 9.08158 16.5789C15.136 8.44298 23.4895 2.91667 34.1422 0ZM86.6774 0V9.67105C81.466 11.0526 76.5612 13.8542 71.9629 18.0757C67.4413 22.2971 65.1805 26.6338 65.1805 31.0855C65.1805 34.0789 66.2534 35.5757 68.3993 35.5757C68.8591 35.5757 69.8937 35.3454 71.5031 34.8849C73.1125 34.4243 74.6069 34.1941 75.9864 34.1941C81.4277 34.1941 85.6045 36.0362 88.5167 39.7204C91.5056 43.3278 93 47.2423 93 51.4638C93 56.5296 91.2373 60.9046 87.712 64.5888C84.2633 68.1963 79.9716 70 74.8368 70C67.9394 70 62.4981 67.5055 58.513 62.5164C54.5278 57.4507 52.5352 50.9265 52.5352 42.9441C52.5352 33.5033 55.5624 24.7149 61.6168 16.5789C67.6712 8.44298 76.0247 2.91667 86.6774 0Z" fill="var(--fill-0, #0089B7)"/>
</svg>
