<svg width="89" height="80" viewBox="0 0 89 80" fill="none" xmlns="http://www.w3.org/2000/svg">
<path d="M35.8673 10.3464C37.2007 10.1902 39.9257 10.6548 41.2214 11.059C42.0925 11.3308 42.6586 11.6578 43.081 12.4705C42.7316 13.2752 41.6399 14.4367 40.9016 14.9026C42.4903 15.4655 54.4186 20.9827 47.4829 21.9126C46.3175 22.0689 44.5425 22.2085 43.5588 22.748C46.3827 26.0035 49.1079 29.2539 50.2886 33.5011C49.9897 34.5496 49.827 34.5641 48.842 34.243C47.026 33.6506 45.2999 32.7956 43.5597 32.0089C41.1527 30.9267 38.7516 29.8313 36.3566 28.7228C34.4362 27.8333 32.6707 26.9893 30.6783 26.2628C30.5838 29.8609 30.6292 33.4611 30.8149 37.0554L31.0442 43.1893C31.0657 43.9233 31.1433 44.7548 31.1303 45.4685C32.3788 44.43 33.4392 43.1541 34.5329 41.9578C35.3179 41.0993 36.7497 39.4565 37.799 39.0287C38.0453 38.928 38.3416 38.9109 38.6053 38.9002C39.4792 38.8646 40.3988 38.8698 41.2155 39.2198C42.2766 39.6746 44.716 42.4687 45.7486 43.4256C48.2079 40.6948 50.5655 37.7883 53.3427 35.375C54.707 34.1891 56.8453 34.4115 58.1183 35.6239C59.3007 36.7502 60.3781 38.0148 61.5016 39.2135C64.6214 42.5922 67.7018 46.0072 70.7423 49.4578C73.0751 52.0691 75.3931 54.6937 77.6964 57.3311C78.6651 58.4365 79.8342 59.6326 80.7123 60.7665C81.8314 60.7474 82.9194 60.7667 83.7603 61.5524C83.9077 62.0122 83.909 62.2376 83.8853 62.7167C82.3349 62.9865 79.8801 63.0615 78.2738 63.1196C74.5118 63.2561 70.679 63.2093 66.9068 63.21L42.8718 63.2437L36.8223 63.2561C35.0579 63.2493 33.4644 63.2152 31.6855 63.2739C31.6799 64.9343 31.7447 66.1315 31.8607 67.7922C37.3703 68.2989 43.2199 69.2952 48.666 70.277L61.6016 72.623C66.1903 73.4524 70.8157 74.3437 75.4779 74.6313C76.8429 74.7154 78.1994 74.8489 79.5677 74.8683C80.6149 74.883 81.6562 74.9372 82.6873 75.1337C83.9805 75.3572 84.0299 75.6772 83.7042 76.8748C82.5077 77.085 81.3318 77.0178 80.1138 77.0152C78.9399 76.9554 77.6329 77.0876 76.4677 76.9746C68.8547 76.2361 61.0268 74.8791 53.5453 73.4228C48.342 72.4828 43.1723 71.5209 37.9331 70.7765C33.8551 70.1972 29.7938 69.8593 25.7027 69.4252C24.1923 69.2648 22.5836 69.3806 21.0737 69.2654C19.072 69.1126 17.0822 68.9072 15.071 68.8915C11.6285 68.8056 8.52074 69.1163 5.13426 68.3363C4.98709 67.4491 4.85235 66.6343 6.05622 66.5976C7.44898 66.5552 8.85139 66.6113 10.2463 66.6309C13.2899 66.6726 16.333 66.7487 19.3748 66.8596C20.7353 66.9115 22.0036 67.0509 23.3944 67.0674C23.6151 65.5059 23.5825 64.8926 23.6018 63.2989C17.6566 62.9854 11.0129 63.5983 5.0905 62.8606C4.88252 61.1467 5.28505 60.9811 6.90839 60.8574C7.22841 60.833 7.6102 60.782 7.93478 60.745C8.30652 60.4065 8.99165 59.5854 9.3532 59.1854L14.8019 53.157C15.9326 51.9274 17.9172 49.5148 19.5202 48.8606C20.6293 48.4078 22.7768 49.1039 23.9023 49.6554C23.9938 48.512 24.1394 47.3609 24.1797 46.2148C24.2486 44.2576 24.1427 34.0413 24.8649 33.1606C25.0083 32.9856 25.2425 32.8561 25.4701 32.8522C25.6597 32.8491 25.8849 32.8915 26.0155 33.042C26.2075 33.2633 26.2194 33.8087 26.2357 34.0887C26.3068 35.3067 26.2712 36.547 26.2573 37.7663L26.117 44.5161L25.9073 54.6324C25.7592 58.8059 25.6379 62.9802 25.5429 67.1552C26.7753 67.1985 28.3347 67.4333 29.6757 67.5124C29.6212 66.7863 29.666 65.4463 29.647 64.6461L29.4492 57.5265L29.1379 45.2724C29.0601 42.9985 28.8614 40.6052 28.8231 38.3713L28.7549 32.153C28.7429 30.1361 28.7273 28.13 28.5464 26.1174C28.5166 25.7856 28.4238 25.218 28.1797 24.9839C28.031 24.8413 27.661 24.7152 27.5001 24.7485C26.2829 25.0009 26.8977 28.1926 26.056 29.0515C25.9212 29.1891 25.7903 29.2437 25.624 29.2435C25.449 29.243 25.2947 29.1348 25.1936 29.0083C24.5716 28.2291 24.5786 27.0646 24.6477 26.1274C24.5207 26.1967 24.3918 26.2622 24.261 26.3237L14.4833 30.748C12.9088 31.4791 11.3268 32.1937 9.73757 32.892C8.74315 33.3333 6.19852 34.6278 5.19355 34.2633C4.12481 32.9824 8.02965 27.2226 8.87783 26.1663C9.79783 25.0206 10.8398 23.9672 11.6533 22.7041C11.2707 22.5372 10.9372 22.4243 10.519 22.3252C8.93196 21.9491 3.05298 22.0656 6.50244 19.1578C8.62376 17.3695 11.7041 15.9829 14.3015 15.0051C12.7668 13.5584 10.5565 11.9951 14.2411 10.996C16.4898 10.4991 19.147 10.2211 21.4011 10.7618C24.3279 11.4639 26.0962 13.8744 27.5307 16.2469C28.7892 14.6814 29.4649 13.3053 31.1644 12.0736C32.7716 10.9089 33.9512 10.5921 35.8673 10.3464ZM41.6568 49.8265C41.6529 50.1778 41.6601 50.882 41.4807 51.1783C39.6731 54.165 36.9773 56.6435 34.8555 59.4217C34.5673 59.7991 34.2873 60.18 33.9979 60.5435C35.0264 60.4276 36.0847 60.5215 37.1149 60.5374C38.5999 60.5602 40.1188 60.6428 41.5997 60.6559L59.4125 60.7043C59.7446 60.097 60.2016 59.3002 60.4601 58.6665C61.1364 57.0093 61.2888 55.0002 60.7905 53.2776C60.1592 51.0952 58.6862 49.4343 57.3836 47.6293C56.2805 46.1004 55.166 44.4526 54.332 42.7593C53.9727 42.0298 53.6818 41.148 53.4727 40.3596C53.3992 40.083 53.3168 39.1252 53.1588 38.9961C51.9853 40.1772 50.8349 41.253 49.6847 42.4815C48.0438 44.2341 46.2825 46.6972 44.1697 47.8372C42.8897 46.9291 43.2427 46.3356 43.8033 45.0837C43.2953 44.5478 42.8101 43.9648 42.3133 43.4089C41.6644 42.6822 40.8577 41.907 40.2451 41.1722C39.6755 41.2552 38.9838 41.2874 38.4666 41.5596C36.801 42.4365 32.9788 47.293 31.4255 48.9524C31.3873 51.8033 31.4029 54.5487 31.7499 57.3754C31.7962 57.7543 31.8268 58.1539 31.8201 58.5356L31.8188 58.6835C33.969 56.2661 36.1955 53.8226 38.4344 51.4841C38.9607 50.9341 39.7714 50.0783 40.3688 49.6263C40.7129 49.6174 41.3318 49.5633 41.611 49.7409L41.6568 49.8265ZM62.5501 60.4256C66.9014 60.7409 71.2683 60.783 75.6249 60.5515C76.1436 60.5443 76.701 60.5267 77.2164 60.5359C75.8451 58.7965 74.3149 57.0837 72.8525 55.412C70.9607 53.2291 69.0536 51.06 67.1312 48.9041L61.6801 42.7754C60.8951 41.893 56.9816 37.3441 56.1386 37.0856C55.5946 38.0861 55.6503 38.9128 55.9755 39.9896C57.3833 44.6515 61.8514 47.8128 63.2336 52.4878C63.4205 53.1207 63.5068 54.4296 63.5257 55.1085C63.5886 56.9306 63.2557 58.7446 62.5501 60.4256ZM14.9052 60.6957C15.6388 60.6852 16.6736 60.7011 17.3778 60.6504C18.8097 59.1365 20.1263 57.7217 21.4729 56.1202C22.2542 55.1909 22.9797 54.5476 23.6392 53.4541C23.0681 52.2411 22.0233 51.1339 20.5803 51.2098C19.4299 51.3648 18.8711 52.2059 18.1167 53.0289C17.386 53.8274 16.6644 54.6343 15.9523 55.4493C14.7964 56.7648 13.1505 58.5524 12.1185 59.9078C11.9448 60.1365 11.7802 60.3717 11.625 60.613C12.7156 60.5985 13.8244 60.7085 14.9052 60.6957ZM24.8927 17.7702C25.3042 18.0722 25.6836 18.3504 26.1118 18.6282C25.9207 18.1126 25.7214 17.4783 25.4992 16.9955C24.7799 15.4323 23.5533 13.9954 21.9649 13.285C20.8968 12.8072 19.0343 12.2679 17.8915 12.4671C17.2123 12.5225 16.4754 12.7368 15.8175 12.9229C17.2911 14.8826 19.5922 14.7564 21.6455 15.646C22.6888 16.0979 23.9957 17.0402 24.8927 17.7702ZM15.5825 23.1593C12.7808 24.0991 9.31691 28.3074 8.23939 31.0167C9.20639 30.6254 10.0953 30.3015 11.0624 29.8778C11.6157 29.6352 13.0671 28.9113 13.54 28.7606L18.2212 26.6224C20.1972 25.7193 21.2703 25.273 23.0797 24.0813C22.4562 23.9726 21.8238 23.837 21.1974 23.7591C19.3427 23.528 17.4572 23.0843 15.5825 23.1593ZM39.559 12.9909C38.5957 12.6185 37.1903 12.3653 36.1707 12.5191C33.8942 12.8199 32.2568 13.3766 30.8047 15.3204C30.2699 16.0361 29.1851 17.5357 29.2516 18.4306C29.6057 18.6173 30.8547 17.3756 31.1768 17.1242C31.9101 16.5835 32.7081 16.0096 33.5629 15.6699C36.0866 14.667 37.391 14.8584 39.559 12.9909ZM23.3477 58.1289C23.0055 58.5193 21.4623 60.198 21.3788 60.5915L21.4387 60.6478L21.5648 60.6348C22.1438 60.7233 22.8899 60.7072 23.489 60.7109C23.5001 60.1967 23.662 58.5322 23.4414 58.1641L23.3477 58.1289ZM29.7479 21.8515C30.6977 21.838 31.7394 21.8298 32.6792 21.702C34.214 21.4935 35.7307 21.2695 37.2705 21.0948C38.232 20.9044 39.239 20.8495 40.2018 20.6964C42.0105 20.4088 43.9042 20.192 45.7047 19.9012C43.7944 18.2152 41.0744 17.2368 38.5529 17.0144C38.3338 16.9951 37.8133 16.9556 37.6068 16.9799C34.3842 17.2123 33.0777 17.9113 30.8523 20.3645C30.3936 20.8701 30.1344 21.3524 29.7479 21.8515ZM25.8451 51.5487C25.8577 51.1889 25.9444 49.3733 25.7888 49.157C25.7799 49.7246 25.7288 51.0559 25.8451 51.5487ZM38.9223 23.1217C37.1581 23.1733 35.5662 23.4437 33.8307 23.7561C33.2497 23.8606 32.5855 24.0159 32.0151 24.0961C34.4047 25.4361 36.6583 26.4856 39.1568 27.5991C40.1718 28.0515 41.1753 28.5817 42.1957 29.0237C43.749 29.7783 45.3388 30.4552 46.9592 31.0517C46.2881 28.6991 42.7292 24.67 40.4755 23.5328C39.7475 23.1654 39.6979 23.1428 38.9223 23.1217ZM16.6091 17.0335C14.3883 17.1518 11.1996 18.3186 9.60061 19.9504C12.7761 20.312 16.1134 20.9565 19.3058 21.2826C21.5641 21.5621 23.219 21.7954 25.5212 21.9235C23.626 18.7846 20.4236 16.5261 16.6091 17.0335Z" fill="#1A1406"/>
<path d="M25.7884 49.1572C25.944 49.3735 25.8573 51.1892 25.8447 51.549C25.7284 51.0561 25.7794 49.7248 25.7884 49.1572Z" fill="#1A1406"/>
<path d="M64.2125 7.52194C66.6762 7.3082 69.2523 8.68664 71.0545 10.3258C76.026 14.8478 76.1319 23.5131 71.6195 28.367C69.8419 30.2792 67.1538 31.6124 64.4608 31.677C52.1162 31.6372 49.7878 12.8456 60.5193 8.30805C61.7573 7.78455 62.8819 7.62114 64.2125 7.52194Z" fill="#1A1406"/>
</svg>
