<svg preserveAspectRatio="none" width="100%" height="100%" overflow="visible" style="display: block;" viewBox="0 0 60 60" fill="none" xmlns="http://www.w3.org/2000/svg">
<g id="Creativity_ 1">
<path id="Vector" d="M38.4375 8.4375C38.4375 3.78516 34.6523 0 30 0C25.3477 0 21.5625 3.78516 21.5625 8.4375C21.5625 11.3684 22.8891 13.316 23.9555 14.8816C24.7137 15.9949 25.3125 16.8738 25.3125 17.8125V50.625C25.3125 50.7563 25.3406 50.8863 25.3934 51.0059L29.1434 59.4434C29.2934 59.782 29.6297 60 30 60C30.3703 60 30.7066 59.782 30.8566 59.4434L34.6066 51.0059C34.6594 50.8863 34.6875 50.7563 34.6875 50.625V17.8125C34.6875 16.3477 35.366 15.4195 36.225 14.2441C37.2621 12.8262 38.4375 11.2172 38.4375 8.4375ZM32.8125 18.75V22.5H27.1875V18.75H32.8125ZM27.1875 24.375H29.0625V48.7934C28.4262 48.8508 27.7992 48.9668 27.1875 49.1402V24.375ZM30 50.625C30.8742 50.625 31.7273 50.7586 32.5488 51.0199L31.7648 52.7848C31.1977 52.5984 30.6012 52.5 30.0012 52.5C29.4012 52.5 28.8035 52.5973 28.2375 52.7848L27.4535 51.0199C28.275 50.7586 29.1281 50.625 30.0023 50.625H30ZM30.9375 48.7934V24.375H32.8125V49.1402C32.2008 48.9668 31.5738 48.8508 30.9375 48.7934ZM30 56.7551L29.0027 54.5121C29.3262 54.423 29.6613 54.3762 30 54.3762C30.3387 54.3762 30.6738 54.423 30.9973 54.5121L30 56.7551ZM32.884 16.8762H30.9375V13.8152C32.052 13.2 32.8125 11.4949 32.8125 9.37617C32.8125 8.8582 32.393 8.43867 31.875 8.43867C31.357 8.43867 30.9375 8.8582 30.9375 9.37617C30.9375 11.1914 30.2332 12.1887 30 12.1887C29.7668 12.1887 29.0625 11.1914 29.0625 9.37617C29.0625 8.8582 28.643 8.43867 28.125 8.43867C27.607 8.43867 27.1875 8.8582 27.1875 9.37617C27.1875 11.4949 27.948 13.2 29.0625 13.8152V16.8762H27.0797C26.8313 15.7781 26.1844 14.8242 25.5047 13.827C24.4887 12.334 23.4375 10.7906 23.4375 8.43867C23.4375 4.81992 26.3813 1.87617 30 1.87617C33.6187 1.87617 36.5625 4.81992 36.5625 8.43867C36.5625 10.6066 35.6637 11.8371 34.7121 13.1391C33.927 14.2125 33.123 15.3187 32.8852 16.8762H32.884Z" fill="var(--fill-0, #E5E5E5)"/>
<path id="Vector_2" d="M41.9136 49.0242C41.5479 48.6586 40.9538 48.6586 40.5882 49.0242L35.9007 53.7117C35.5351 54.0773 35.5351 54.6715 35.9007 55.0371C36.0835 55.2199 36.3237 55.3113 36.564 55.3113C36.8042 55.3113 37.0433 55.2199 37.2272 55.0371L41.9147 50.3496C42.2804 49.984 42.2804 49.3898 41.9147 49.0242H41.9136Z" fill="var(--fill-0, #E5E5E5)"/>
<path id="Vector_3" d="M44.9336 54.9645C44.7414 54.484 44.1965 54.2496 43.7148 54.4418L39.0273 56.3168C38.5469 56.509 38.3125 57.0551 38.5047 57.5356C38.6512 57.9023 39.0027 58.125 39.3754 58.125C39.4914 58.125 39.6086 58.1039 39.7234 58.0582L44.4109 56.1832C44.8914 55.991 45.1258 55.4449 44.9336 54.9645Z" fill="var(--fill-0, #E5E5E5)"/>
<path id="Vector_4" d="M19.4136 49.0242C19.0479 48.6586 18.4538 48.6586 18.0882 49.0242C17.7226 49.3898 17.7226 49.984 18.0882 50.3496L22.7757 55.0371C22.9585 55.2199 23.1987 55.3113 23.439 55.3113C23.6792 55.3113 23.9183 55.2199 24.1022 55.0371C24.4679 54.6715 24.4679 54.0773 24.1022 53.7117L19.4147 49.0242H19.4136Z" fill="var(--fill-0, #E5E5E5)"/>
<path id="Vector_5" d="M20.9736 56.317L16.2861 54.442C15.8056 54.2498 15.2595 54.483 15.0673 54.9646C14.8751 55.4451 15.1083 55.9912 15.59 56.1834L20.2775 58.0584C20.3911 58.1041 20.5095 58.1252 20.6255 58.1252C20.997 58.1252 21.3497 57.9025 21.4962 57.5357C21.6884 57.0552 21.4552 56.5091 20.9736 56.317Z" fill="var(--fill-0, #E5E5E5)"/>
</g>
</svg>
