<svg preserveAspectRatio="none" width="100%" height="100%" overflow="visible" style="display: block;" viewBox="0 0 28.1667 28.1667" fill="none" xmlns="http://www.w3.org/2000/svg">
<g id="elements">
<path id="Ellipse 1590" d="M27.4167 14.0833C27.4167 21.4471 21.4471 27.4167 14.0833 27.4167C6.71954 27.4167 0.75 21.4471 0.75 14.0833C0.75 6.71954 6.71954 0.75 14.0833 0.75C21.4471 0.75 27.4167 6.71954 27.4167 14.0833Z" stroke="var(--stroke-0, #141B34)" stroke-width="1.5"/>
<path id="Polygon 36" d="M13.6937 10.5486C13.926 10.3727 14.2406 10.3727 14.473 10.5486L17.4767 12.822C17.709 12.9979 17.8063 13.3096 17.7175 13.5942L16.5702 17.2728C16.4815 17.5573 16.2269 17.75 15.9397 17.75H12.227C11.9398 17.75 11.6852 17.5573 11.5965 17.2728L10.4492 13.5942C10.3604 13.3096 10.4576 12.9979 10.69 12.822L13.6937 10.5486Z" stroke="var(--stroke-0, #141B34)" stroke-width="1.5"/>
<path id="Vector 5203" d="M14.0833 10.0833V4.75M18.0833 12.75L23.4167 10.75M16.75 18.0833L19.4167 22.0833M11.4167 17.4167L8.75 20.75M10.0833 13.4167L4.75 12.0833" stroke="var(--stroke-0, #141B34)" stroke-width="1.5" stroke-linejoin="round"/>
<path id="Vector" d="M10.0833 1.41667L14.1054 4.24655L18.0833 1.41667M0.75 15.1497L5.01207 12.0018L2.82398 7.04393M24.0437 23.2208L18.9044 22.2906L17.104 27.4167M24.7897 6.34448L23.1546 10.603L27.4167 13.751M8.76323 26.6245L8.81855 20.9721L3.42108 21.03" stroke="var(--stroke-0, #141B34)" stroke-width="1.5" stroke-linejoin="round"/>
</g>
</svg>
