<svg preserveAspectRatio="none" width="100%" height="100%" overflow="visible" style="display: block;" viewBox="0 0 24.8333 24.8333" fill="none" xmlns="http://www.w3.org/2000/svg">
<g id="elements">
<path id="Vector 5690" d="M0.75 0.750002L24.0833 0.750002" stroke="var(--stroke-0, #141B34)" stroke-width="1.5" stroke-linecap="round"/>
<path id="Rectangle 2357" d="M19.4167 15.9167L14.75 15.9167C11.8543 15.9167 11.25 15.3123 11.25 12.4167L11.25 0.750001L22.9167 0.750001V12.4167C22.9167 15.3123 22.3123 15.9167 19.4167 15.9167Z" stroke="var(--stroke-0, #141B34)" stroke-width="1.5" stroke-linejoin="round"/>
<path id="Rectangle 2358" d="M15.9167 0.75H1.91667L1.91667 20.5833C1.91667 23.479 2.521 24.0833 5.41667 24.0833H12.4167C15.3123 24.0833 15.9167 23.479 15.9167 20.5833L15.9167 15.9167" stroke="var(--stroke-0, #141B34)" stroke-width="1.5" stroke-linejoin="round"/>
<path id="Vector" d="M1.91667 19.4167H5.41667M1.91667 14.75H5.41667M1.91667 10.0833H5.41667" stroke="var(--stroke-0, #141B34)" stroke-width="1.5" stroke-linecap="round"/>
<path id="Vector_2" d="M15.9167 11.25H18.25M15.9167 7.75H18.25" stroke="var(--stroke-0, #141B34)" stroke-width="1.5" stroke-linecap="round"/>
<path id="Vector 5806" d="M17.0833 0.750002L17.0833 4.25" stroke="var(--stroke-0, #141B34)" stroke-width="1.5" stroke-linecap="round" stroke-linejoin="round"/>
</g>
</svg>
