<svg preserveAspectRatio="none" width="100%" height="100%" overflow="visible" style="display: block;" viewBox="0 0 24.8337 20.1668" fill="none" xmlns="http://www.w3.org/2000/svg">
<g id="elements">
<path id="Vector 4543" d="M7.16687 19.4168H5.94672C4.35908 19.4168 3.56526 19.4168 2.989 19.0465C2.70739 18.8656 2.468 18.6262 2.28708 18.3446C1.91686 17.7684 1.91686 16.9745 1.91686 15.3869C1.91686 14.8776 1.91686 14.6229 1.86376 14.3782C1.83726 14.2562 1.80102 14.1365 1.75537 14.0203C1.66385 13.7872 1.52258 13.5753 1.24005 13.1515L0.750198 12.4168H7.16687C8.25406 12.4168 8.79766 12.4168 9.22646 12.5944C9.79819 12.8312 10.2524 13.2854 10.4893 13.8572C10.6669 14.286 10.6669 14.8296 10.6669 15.9168C10.6669 17.004 10.6669 17.5476 10.4893 17.9764C10.2524 18.5481 9.79819 19.0023 9.22646 19.2391C8.79766 19.4168 8.25406 19.4168 7.16687 19.4168Z" stroke="var(--stroke-0, #141B34)" stroke-width="1.5" stroke-linecap="round" stroke-linejoin="round"/>
<path id="Vector 4544" d="M17.6669 19.4168H18.887C20.4746 19.4168 21.2685 19.4168 21.8447 19.0465C22.1263 18.8656 22.3657 18.6262 22.5466 18.3446C22.9169 17.7684 22.9169 16.9745 22.9169 15.3869C22.9169 14.8776 22.9169 14.6229 22.97 14.3782C22.9965 14.2562 23.0327 14.1365 23.0784 14.0203C23.1699 13.7872 23.3111 13.5753 23.5937 13.1515L24.0835 12.4168H17.6669C16.5797 12.4168 16.0361 12.4168 15.6073 12.5944C15.0355 12.8312 14.5813 13.2854 14.3445 13.8572C14.1669 14.286 14.1669 14.8296 14.1669 15.9168C14.1669 17.004 14.1669 17.5476 14.3445 17.9764C14.5813 18.5481 15.0355 19.0023 15.6073 19.2391C16.0361 19.4168 16.5797 19.4168 17.6669 19.4168Z" stroke="var(--stroke-0, #141B34)" stroke-width="1.5" stroke-linecap="round" stroke-linejoin="round"/>
<path id="Vector 4545" d="M24.0835 12.4168L20.0304 2.45836C19.6929 1.62911 19.5242 1.21447 19.2911 1.01672C18.9467 0.724527 18.4841 0.66787 18.0903 0.869649C17.8237 1.00621 17.577 1.36995 17.0835 2.09743" stroke="var(--stroke-0, #141B34)" stroke-width="1.5" stroke-linecap="round" stroke-linejoin="round"/>
<path id="Vector 4546" d="M0.750198 12.4168L4.8033 2.45836C5.14081 1.62911 5.30957 1.21447 5.54263 1.01672C5.88698 0.724527 6.34958 0.66787 6.74342 0.869649C7.00998 1.00621 7.25672 1.36995 7.7502 2.09743" stroke="var(--stroke-0, #141B34)" stroke-width="1.5" stroke-linecap="round" stroke-linejoin="round"/>
<path id="Ellipse 1590" d="M10.6669 14.7501C10.6669 13.7836 11.4504 13.0001 12.4169 13.0001C13.3834 13.0001 14.1669 13.7836 14.1669 14.7501" stroke="var(--stroke-0, #141B34)" stroke-width="1.5"/>
</g>
</svg>
