<svg width="90" height="80" viewBox="0 0 90 80" fill="none" xmlns="http://www.w3.org/2000/svg">
<path d="M71.7724 8.49165C72.4141 8.47925 73.427 8.51626 74.0513 8.57472C74.2172 9.63942 74.4064 13.9317 73.936 14.6822C73.6037 14.8898 72.7495 14.8614 72.3256 14.8762C72.3645 15.8554 72.3455 16.8304 72.3351 17.9073C72.3271 18.7368 72.4776 20.5358 71.9969 21.2865C71.9025 21.4338 71.1565 21.4884 70.9521 21.485C70.2376 21.473 69.649 21.4569 68.9398 21.6275C68.1319 22.4052 67.6831 23.558 67.5364 24.6571C67.4788 25.0878 67.3372 28.2253 67.4936 28.3858C67.6555 28.5515 67.9502 28.5453 68.1044 28.7788C68.5821 29.5013 68.3703 33.783 68.1614 34.7381L66.4551 34.8611C66.5095 35.9206 66.4331 37.3633 66.4293 38.4687L66.457 44.8264L66.4206 68.3599C67.0382 68.3989 68.0991 68.2611 68.1866 69.0215C68.2896 69.917 68.8255 74.5872 67.6761 74.6546C63.9364 74.8806 60.1091 74.7339 56.3595 74.7367C55.086 74.7377 54.8189 74.1553 54.7339 72.9299C54.6486 71.6981 54.6843 69.7983 55.144 68.6493C55.2477 68.39 56.4555 68.3602 56.7214 68.3458C56.657 67.209 56.7165 65.4979 56.7173 64.3244L56.7182 56.3096L56.7463 41.528C56.7485 39.3079 56.6966 37.0486 56.7243 34.8391C56.2412 34.8325 55.78 34.8188 55.3027 34.7386C54.4746 33.5908 54.5722 30.3384 55.0541 28.9944C55.0894 28.896 55.5339 28.3657 55.6416 28.2249C55.6526 28.146 55.6617 28.0668 55.6691 27.9875C55.6898 27.7612 55.7093 27.4979 55.7063 27.2706C55.6759 24.9316 56.0812 23.4296 54.4752 21.4941C50.6716 21.5345 46.8674 21.5362 43.0638 21.4996L38.3823 21.496C37.4674 21.4931 36.427 21.5089 35.5273 21.452C34.0583 23.9104 33.8841 25.3771 34.0708 28.2416C34.4934 28.5955 34.9901 28.8848 35.0589 29.473C35.1396 30.1633 35.2412 34.07 34.8655 34.488C34.5243 34.8677 33.8522 34.8251 33.3832 34.8446L33.304 34.8442C33.1963 34.9722 33.2318 35.9976 33.2308 36.2522L33.2371 42.0499L33.2498 59.7638L33.2386 65.5712C33.2371 66.4649 33.2723 67.4611 33.2388 68.3411C33.2928 68.3441 33.3468 68.3475 33.4007 68.3511C33.7243 68.3733 34.566 68.4461 34.7358 68.7695C35.4007 70.0366 35.1046 72.4027 35.0782 73.8414C35.0706 74.2501 34.6735 74.5604 34.4168 74.7511C32.6867 74.8698 30.7942 74.8122 28.9616 74.7997C27.2841 74.7885 23.5963 74.9494 22.0638 74.6076C21.0346 74.3779 21.4392 69.5434 21.8151 68.5199C22.2848 68.4035 22.901 68.3582 23.3906 68.3083C23.3279 67.5458 23.377 65.9102 23.376 65.099L23.37 58.5475L23.3713 43.5254C23.3959 40.6294 23.3921 37.7333 23.3603 34.8374C23.0312 34.837 21.8939 34.7955 21.6661 34.5669C21.5072 34.4071 21.4644 33.6374 21.4712 33.3373C21.501 32.0306 21.3072 30.2336 21.7008 29.0126C21.7641 28.8158 22.4788 28.1346 22.6486 27.9561C22.4551 26.3305 22.617 24.1999 21.926 22.6615C21.7415 22.2507 21.344 21.8258 21.0365 21.4914C19.9748 21.4681 18.9172 21.5039 17.8483 21.4658C17.6683 20.4982 17.5595 19.5187 17.523 18.5352C17.4821 17.3788 17.5188 16.1505 17.4297 15.0013C16.9791 14.9547 16.3846 14.9174 16.0176 14.621C15.77 14.4211 15.6642 14.1111 15.6267 13.8045C15.5347 13.053 15.4822 9.20217 15.8986 8.76651C16.0523 8.60575 16.8102 8.60439 17.0455 8.59631C18.5034 8.54613 19.972 8.57847 21.431 8.57736L29.6115 8.56782L57.1353 8.5246C61.9518 8.5217 66.9673 8.59171 71.7724 8.49165ZM25.1904 63.8651C25.8966 63.8526 26.6028 63.849 27.3093 63.8541C27.2096 62.4256 27.3569 60.8806 27.2809 59.514L29.0483 59.5295L29.1736 61.5483C29.2086 62.1834 29.2526 63.1881 29.2054 63.8118C29.9152 63.8239 30.7008 63.8203 31.4043 63.8548C31.308 62.1978 31.3319 60.2289 31.3271 58.558L31.3121 50.3904L31.2964 40.3633C31.2894 38.6006 31.2318 36.6592 31.2752 34.9049C29.9965 34.903 28.7176 34.8914 27.4388 34.8698C26.7766 34.8622 25.9482 34.8827 25.3025 34.8516C25.1785 41.6387 25.1436 48.4268 25.1976 55.2148L25.2014 61.2076C25.2014 61.6969 25.2405 63.4744 25.1904 63.8651ZM58.6094 63.8677C59.34 63.8467 60.0712 63.8425 60.802 63.855C60.693 63.0802 60.7527 60.3849 60.7779 59.524C61.3123 59.5343 61.981 59.5642 62.5049 59.5413L62.5262 61.3968C62.5281 62.1739 62.5535 63.1259 62.5273 63.8895C63.0778 63.8444 63.9802 63.8533 64.5544 63.8753C64.4403 62.2874 64.4983 60.1856 64.5006 58.5678L64.5085 49.6742L64.5036 39.8099C64.5015 38.3553 64.4287 36.1987 64.501 34.8165C62.5891 34.8317 60.5425 34.8474 58.631 34.8304C58.6778 36.8926 58.612 39.1511 58.6136 41.2387L58.6458 54.0302L58.6429 60.6425C58.642 61.4033 58.6881 63.2224 58.6094 63.8677ZM17.4458 12.818L52.0771 12.7869L63.0867 12.7616C66.2706 12.7658 69.3305 12.8108 72.5169 12.7356C72.4484 12.0856 72.4642 11.2189 72.4716 10.5504C71.922 10.607 71.0376 10.5743 70.4606 10.5696C69.3688 10.5579 68.2771 10.5536 67.1853 10.5568L54.519 10.5396L30.0337 10.5324C25.882 10.5309 21.5889 10.584 17.4492 10.5248C17.4508 11.2371 17.4775 12.1194 17.4458 12.818ZM23.6704 21.5532C23.8221 22.3828 24.0291 23.1549 24.173 23.9288C25.5294 23.9445 26.7937 23.9494 28.1478 23.9303C28.1332 24.5587 28.1347 25.1872 28.1518 25.8154C26.8877 25.9477 25.6181 26.0207 24.3474 26.0344C24.3449 26.7183 24.3758 27.8232 24.3231 28.4736L29.6543 28.491L32.1766 28.4692C32.1076 27.9877 32.1078 26.5494 32.1527 26.0287C31.6225 26.0349 30.8852 26.0234 30.3726 26.0696C30.3628 25.408 30.3832 24.5568 30.3493 23.9149C30.8475 23.9229 31.8583 23.9134 32.333 23.9739C32.6158 23.2027 32.9326 22.27 33.2469 21.5219C30.624 21.5415 28.0194 21.4387 25.362 21.5092C24.806 21.524 24.224 21.5487 23.6704 21.5532ZM57.1097 21.5437C57.2174 22.5183 57.3379 22.9733 57.5904 23.9252C58.1487 23.9333 59.1838 23.9875 59.6936 23.9453C59.6536 24.6499 59.6577 25.2886 59.6771 25.9955C59.0663 26.048 58.2022 26.0211 57.572 26.019C57.5703 26.6838 57.6024 27.8518 57.551 28.466C59.2858 28.4812 61.0206 28.4861 62.7554 28.4804C63.5679 28.4793 64.7878 28.5166 65.5451 28.4476C65.6314 28.347 65.6026 28.1602 65.5959 28.0033C65.5906 27.4129 65.5578 26.586 65.5866 26.0143C64.3148 26.0749 63.0056 26.016 61.7066 26.0704L61.7106 23.9517C62.9027 23.982 64.0958 23.9367 65.2879 23.9367C65.4539 23.9367 65.6183 23.9358 65.7834 23.9553C65.9719 23.1432 66.2234 22.3676 66.391 21.5489C65.671 21.5716 64.7821 21.5026 64.034 21.4929C62.5021 21.4791 60.9703 21.4846 59.4388 21.5092C58.7082 21.5204 57.8225 21.5591 57.1097 21.5437ZM33.2682 72.9176C33.2054 72.4696 33.2297 70.7551 33.2598 70.2662C31.965 70.3788 29.7762 70.2725 28.3823 70.2744L25.3554 70.2914C24.8179 70.2943 23.8873 70.3091 23.3766 70.2495C23.365 71.1487 23.3654 72.0484 23.3785 72.9477C24.285 72.8888 25.5573 72.9424 26.5093 72.9424C28.7622 72.9481 31.0153 72.9398 33.2682 72.9176ZM23.3446 33.0283C25.5952 33.0598 27.846 33.0713 30.0966 33.0626C30.8238 33.062 32.661 32.9999 33.2924 33.0586C33.2496 32.4442 33.2246 31.0763 33.2742 30.4751C30.177 30.4766 27.0782 30.4611 23.9815 30.4292C23.769 30.4268 23.5766 30.434 23.3641 30.4122C23.3614 30.9788 23.3954 32.5762 23.3446 33.0283ZM34.8007 17.3304C35.5698 16.4563 36.0414 15.9488 36.581 14.9037C35.5592 14.9589 34.0761 14.8611 33.0033 14.8495C31.9739 14.8384 30.6139 14.9172 29.6488 14.8644C30.7863 16.6948 32.016 17.605 33.1791 19.1423C33.6509 18.5849 34.2888 17.8445 34.8007 17.3304ZM43.4486 14.843C42.9044 14.8727 42.0031 14.8965 41.4913 14.9736C42.1277 15.9695 44.0704 18.2515 44.9449 19.0507C45.2761 18.7856 45.5425 18.4872 45.8331 18.1794C46.8263 17.1347 47.7163 16.1941 48.4342 14.9378C46.787 14.8842 45.096 14.809 43.4486 14.843ZM31.3197 66.0336C30.5815 66.0283 29.8367 66.0086 29.0985 65.9851C27.8179 65.9445 26.5127 66.034 25.2365 65.9879C25.2333 66.561 25.2596 67.8717 25.1954 68.3947C27.234 68.4209 29.2727 68.4101 31.311 68.3625C31.4069 68.1822 31.3095 66.4245 31.3197 66.0336ZM65.0646 14.9239C65.5942 15.923 68.1616 19.1638 69.0883 19.5502C69.6392 19.6095 70.0418 19.562 70.5872 19.5073C70.4841 18.8266 70.5216 15.6625 70.5518 14.8424C69.5838 14.9172 67.8718 14.797 66.7404 14.8378C66.235 14.8671 65.5584 14.9259 65.0646 14.9239ZM60.1859 14.9648C58.9827 14.879 56.2412 14.706 55.0613 14.8393C54.5609 14.8712 53.6867 14.942 53.1959 14.9015C54.238 16.4886 55.3908 17.7304 56.7427 19.06C57.0579 18.7926 57.3273 18.4845 57.6069 18.1803C58.737 16.9529 59.25 16.3449 60.1859 14.9648ZM47.2547 19.5959C48.2014 19.5039 49.7063 19.5477 50.693 19.5518C52.1863 19.5603 52.9002 19.5365 54.3717 19.4058C53.6627 18.4124 51.7531 16.1933 50.8024 15.4793C49.671 16.6844 48.0958 18.2322 47.2547 19.5959ZM42.507 19.3555C42.1402 18.8649 39.4136 15.573 39.0012 15.4328C37.7402 16.7846 36.6263 17.871 35.5271 19.3633C36.8407 19.4831 37.8251 19.5548 39.1529 19.5449C40.4409 19.5337 41.2268 19.5226 42.507 19.3555ZM62.7732 19.5422C63.8346 19.5368 65.0022 19.5417 66.0473 19.3462C65.6282 18.7913 63.0955 15.6156 62.5065 15.4894C61.4479 16.6832 59.9389 17.9912 59.1599 19.3881C60.5087 19.4998 61.4111 19.5427 62.7732 19.5422ZM58.6541 65.9904C58.6663 66.6694 58.704 67.7417 58.642 68.3887C60.61 68.4577 62.6149 68.3589 64.5605 68.4086C64.4835 67.8873 64.4672 66.4905 64.5518 65.9746C62.6259 66.0243 60.6113 65.9527 58.6541 65.9904ZM23.8012 19.4055C24.1228 19.3825 24.4382 19.4027 24.7588 19.432C25.6484 19.5134 26.5273 19.5372 27.4189 19.5597C28.5345 19.5593 29.6488 19.4877 30.7552 19.3453C30.3076 18.6445 27.9442 15.9013 27.2778 15.4823C25.8888 16.9165 24.9789 17.6895 23.8012 19.4055ZM19.3571 19.5321C21.5548 19.6114 21.4132 19.2871 22.7893 17.6411C23.7051 16.6198 24.1745 16.1369 24.8731 14.9436C23.8282 14.8959 22.7827 14.8697 21.737 14.8651C21.0285 14.8627 20.047 14.8922 19.358 14.8522L19.3679 17.9069C19.3682 18.3663 19.3919 19.1016 19.3571 19.5321ZM56.7239 72.801C59.2105 72.725 61.8194 72.8192 64.341 72.7629C65.0365 72.7599 65.9453 72.7293 66.6242 72.7646C66.6092 71.9614 66.5942 71.0698 66.6164 70.2643C64.068 70.2808 61.2378 70.198 58.7197 70.2931C56.0181 70.492 56.4905 70.4641 56.7239 72.801ZM58.5995 30.448C58.1042 30.4605 57.0864 30.4609 56.6232 30.5299C56.5603 31.4363 56.6253 31.9851 56.7121 32.9051C59.4566 32.9483 62.1396 32.8736 64.879 32.8518C65.3076 32.833 66.0856 32.8222 66.4854 32.7701C66.7015 31.7659 66.5952 31.4107 66.6541 30.4581C65.8266 30.4903 65.0371 30.4253 64.224 30.434C62.3887 30.4533 60.4234 30.3762 58.5995 30.448Z" fill="#FEFEFE"/>
</svg>
